M48
;DRILL file {KiCad 4.0.4-stable} date 04/25/17 22:05:03
;FORMAT={-:-/ absolute / inch / decimal}
FMAT,2
INCH,TZ
T1C0.030
T2C0.031
T3C0.035
T4C0.039
T5C0.040
T6C0.047
T7C0.051
T8C0.055
T9C0.059
T10C0.063
T11C0.138
T12C0.197
%
G90
G05
M72
T1
X5.96Y-4.74
X6.06Y-4.84
X6.16Y-4.74
T2
X4.7581Y-4.84
X4.955Y-4.84
X5.31Y-2.68
X5.31Y-2.8769
X5.38Y-4.14
X5.41Y-4.5
X5.41Y-4.5787
X5.605Y-4.39
X5.605Y-4.89
X5.69Y-3.97
X5.88Y-4.14
X6.19Y-3.97
X6.53Y-4.44
X6.53Y-4.54
X6.53Y-4.64
T3
X6.03Y-4.14
X6.13Y-4.14
T4
X4.16Y-3.81
X4.16Y-3.97
X4.26Y-3.81
X4.26Y-3.97
X4.36Y-3.81
X4.36Y-3.97
X6.78Y-4.64
X6.88Y-4.64
X6.98Y-4.64
T5
X4.67Y-4.68
X4.77Y-4.68
X4.87Y-4.68
X5.18Y-4.08
X5.18Y-4.18
X5.18Y-4.28
X5.18Y-4.38
X5.18Y-4.48
X5.18Y-4.58
T6
X4.72Y-2.93
X4.83Y-3.65
X4.9169Y-2.93
X5.0269Y-3.65
T7
X5.835Y-3.4
X5.9138Y-3.1638
X5.9138Y-3.6362
X6.3941Y-3.1638
X6.3941Y-3.6362
T8
X5.53Y-3.14
X5.53Y-3.64
T9
X5.53Y-2.69
X5.53Y-2.89
X5.855Y-4.415
X6.255Y-4.415
X6.48Y-2.84
X6.83Y-3.68
X7.03Y-3.68
T10
X6.893Y-2.865
X6.893Y-3.395
X7.027Y-2.865
X7.027Y-3.395
T11
X4.26Y-3.1541
X6.88Y-3.9841
T12
X4.21Y-4.84
X4.23Y-2.78
X6.16Y-2.71
X7.08Y-4.88
T0
M30
