G04 #@! TF.FileFunction,Other,Fab,Top*
%FSLAX46Y46*%
G04 Gerber Fmt 4.6, Leading zero omitted, Abs format (unit mm)*
G04 Created by KiCad (PCBNEW 4.0.4-stable) date 04/25/17 22:02:41*
%MOMM*%
%LPD*%
G01*
G04 APERTURE LIST*
%ADD10C,0.100000*%
%ADD11C,0.150000*%
G04 APERTURE END LIST*
D10*
D11*
X183896000Y-128016000D02*
X183896000Y-64770000D01*
X101600000Y-128016000D02*
X101600000Y-64770000D01*
X183896000Y-128016000D02*
X101600000Y-128016000D01*
X101600000Y-64770000D02*
X183896000Y-64770000D01*
D10*
X136414000Y-113300000D02*
X136414000Y-117300000D01*
X136414000Y-117300000D02*
X138414000Y-117300000D01*
X138414000Y-117300000D02*
X138414000Y-113300000D01*
X138414000Y-113300000D02*
X136414000Y-113300000D01*
X125507000Y-123886000D02*
X125507000Y-121986000D01*
X125507000Y-121986000D02*
X121207000Y-121986000D01*
X121207000Y-121986000D02*
X121207000Y-123886000D01*
X121207000Y-123886000D02*
X125507000Y-123886000D01*
X132182000Y-92710000D02*
G75*
G03X132182000Y-92710000I-7000000J0D01*
G01*
X119482000Y-92710000D02*
X121282000Y-92710000D01*
X120382000Y-91810000D02*
X120382000Y-93610000D01*
X135824000Y-68422000D02*
X133924000Y-68422000D01*
X133924000Y-68422000D02*
X133924000Y-72722000D01*
X133924000Y-72722000D02*
X135824000Y-72722000D01*
X135824000Y-72722000D02*
X135824000Y-68422000D01*
X129388000Y-74422000D02*
G75*
G03X129388000Y-74422000I-7000000J0D01*
G01*
X116688000Y-74422000D02*
X118488000Y-74422000D01*
X117588000Y-73522000D02*
X117588000Y-75322000D01*
X155932555Y-103990524D02*
G75*
G03X155932000Y-106322190I-1500555J-1165476D01*
G01*
X155932000Y-105156000D02*
G75*
G03X155932000Y-105156000I-1500000J0D01*
G01*
X155932000Y-106322190D02*
X155932000Y-103989810D01*
X142312000Y-81656000D02*
X138612000Y-81656000D01*
X138612000Y-81656000D02*
X138612000Y-90556000D01*
X138612000Y-90556000D02*
X142312000Y-90556000D01*
X142312000Y-90556000D02*
X142312000Y-81656000D01*
X140462000Y-79756000D02*
X140462000Y-81656000D01*
X140462000Y-92456000D02*
X140462000Y-90556000D01*
X142312000Y-82991000D02*
X138612000Y-82991000D01*
X169752000Y-104796000D02*
X169752000Y-98396000D01*
X169752000Y-98396000D02*
X179752000Y-98396000D01*
X179752000Y-98396000D02*
X179752000Y-104796000D01*
X179752000Y-104796000D02*
X169752000Y-104796000D01*
X169752000Y-114046000D02*
X169752000Y-104796000D01*
X169752000Y-104796000D02*
X179752000Y-104796000D01*
X179752000Y-104796000D02*
X179752000Y-114046000D01*
X179752000Y-114046000D02*
X169752000Y-114046000D01*
X172212000Y-114046000D02*
X172212000Y-117856000D01*
X174752000Y-114046000D02*
X174752000Y-117856000D01*
X177292000Y-114046000D02*
X177292000Y-117856000D01*
X176602000Y-101196000D02*
G75*
G03X176602000Y-101196000I-1850000J0D01*
G01*
X143967000Y-113356000D02*
X140767000Y-113356000D01*
X140767000Y-113356000D02*
X140767000Y-122356000D01*
X140767000Y-122356000D02*
X143967000Y-122356000D01*
X143967000Y-122356000D02*
X143967000Y-113356000D01*
X142367000Y-111506000D02*
X142367000Y-113356000D01*
X142367000Y-124206000D02*
X142367000Y-122356000D01*
X147502000Y-106756000D02*
X147502000Y-103556000D01*
X147502000Y-103556000D02*
X138502000Y-103556000D01*
X138502000Y-103556000D02*
X138502000Y-106756000D01*
X138502000Y-106756000D02*
X147502000Y-106756000D01*
X149352000Y-105156000D02*
X147502000Y-105156000D01*
X136652000Y-105156000D02*
X138502000Y-105156000D01*
X155376000Y-102438000D02*
X155376000Y-99238000D01*
X155376000Y-99238000D02*
X146376000Y-99238000D01*
X146376000Y-99238000D02*
X146376000Y-102438000D01*
X146376000Y-102438000D02*
X155376000Y-102438000D01*
X157226000Y-100838000D02*
X155376000Y-100838000D01*
X144526000Y-100838000D02*
X146376000Y-100838000D01*
X103204000Y-83714000D02*
X103204000Y-77314000D01*
X103204000Y-77314000D02*
X113204000Y-77314000D01*
X113204000Y-77314000D02*
X113204000Y-83714000D01*
X113204000Y-83714000D02*
X103204000Y-83714000D01*
X103204000Y-92964000D02*
X103204000Y-83714000D01*
X103204000Y-83714000D02*
X113204000Y-83714000D01*
X113204000Y-83714000D02*
X113204000Y-92964000D01*
X113204000Y-92964000D02*
X103204000Y-92964000D01*
X105664000Y-92964000D02*
X105664000Y-96774000D01*
X108204000Y-92964000D02*
X108204000Y-96774000D01*
X110744000Y-92964000D02*
X110744000Y-96774000D01*
X110054000Y-80114000D02*
G75*
G03X110054000Y-80114000I-1850000J0D01*
G01*
X112014000Y-99568000D02*
X104394000Y-99568000D01*
X104394000Y-99568000D02*
X104394000Y-102108000D01*
X104394000Y-102108000D02*
X112014000Y-102108000D01*
X112014000Y-102108000D02*
X112014000Y-99568000D01*
X164112000Y-113576000D02*
X164112000Y-117076000D01*
X164108375Y-117069625D02*
G75*
G03X168342000Y-115316000I1753625J1753625D01*
G01*
X164108375Y-113562375D02*
G75*
G02X168342000Y-115316000I1753625J-1753625D01*
G01*
D11*
X136675905Y-112692381D02*
X136675905Y-111692381D01*
X137056858Y-111692381D01*
X137152096Y-111740000D01*
X137199715Y-111787619D01*
X137247334Y-111882857D01*
X137247334Y-112025714D01*
X137199715Y-112120952D01*
X137152096Y-112168571D01*
X137056858Y-112216190D01*
X136675905Y-112216190D01*
X137628286Y-111787619D02*
X137675905Y-111740000D01*
X137771143Y-111692381D01*
X138009239Y-111692381D01*
X138104477Y-111740000D01*
X138152096Y-111787619D01*
X138199715Y-111882857D01*
X138199715Y-111978095D01*
X138152096Y-112120952D01*
X137580667Y-112692381D01*
X138199715Y-112692381D01*
X174656762Y-97823619D02*
X174561524Y-97776000D01*
X174466286Y-97680762D01*
X174323429Y-97537905D01*
X174228190Y-97490286D01*
X174132952Y-97490286D01*
X174180571Y-97728381D02*
X174085333Y-97680762D01*
X173990095Y-97585524D01*
X173942476Y-97395048D01*
X173942476Y-97061714D01*
X173990095Y-96871238D01*
X174085333Y-96776000D01*
X174180571Y-96728381D01*
X174371048Y-96728381D01*
X174466286Y-96776000D01*
X174561524Y-96871238D01*
X174609143Y-97061714D01*
X174609143Y-97395048D01*
X174561524Y-97585524D01*
X174466286Y-97680762D01*
X174371048Y-97728381D01*
X174180571Y-97728381D01*
X175561524Y-97728381D02*
X174990095Y-97728381D01*
X175275809Y-97728381D02*
X175275809Y-96728381D01*
X175180571Y-96871238D01*
X175085333Y-96966476D01*
X174990095Y-97014095D01*
X107442095Y-75646381D02*
X107442095Y-76455905D01*
X107489714Y-76551143D01*
X107537333Y-76598762D01*
X107632571Y-76646381D01*
X107823048Y-76646381D01*
X107918286Y-76598762D01*
X107965905Y-76551143D01*
X108013524Y-76455905D01*
X108013524Y-75646381D01*
X109013524Y-76646381D02*
X108442095Y-76646381D01*
X108727809Y-76646381D02*
X108727809Y-75646381D01*
X108632571Y-75789238D01*
X108537333Y-75884476D01*
X108442095Y-75932095D01*
X113526381Y-101576095D02*
X112526381Y-101576095D01*
X112526381Y-101195142D01*
X112574000Y-101099904D01*
X112621619Y-101052285D01*
X112716857Y-101004666D01*
X112859714Y-101004666D01*
X112954952Y-101052285D01*
X113002571Y-101099904D01*
X113050190Y-101195142D01*
X113050190Y-101576095D01*
X112526381Y-100147523D02*
X112526381Y-100338000D01*
X112574000Y-100433238D01*
X112621619Y-100480857D01*
X112764476Y-100576095D01*
X112954952Y-100623714D01*
X113335905Y-100623714D01*
X113431143Y-100576095D01*
X113478762Y-100528476D01*
X113526381Y-100433238D01*
X113526381Y-100242761D01*
X113478762Y-100147523D01*
X113431143Y-100099904D01*
X113335905Y-100052285D01*
X113097810Y-100052285D01*
X113002571Y-100099904D01*
X112954952Y-100147523D01*
X112907333Y-100242761D01*
X112907333Y-100433238D01*
X112954952Y-100528476D01*
X113002571Y-100576095D01*
X113097810Y-100623714D01*
X169969619Y-115411238D02*
X169922000Y-115506476D01*
X169826762Y-115601714D01*
X169683905Y-115744571D01*
X169636286Y-115839810D01*
X169636286Y-115935048D01*
X169874381Y-115887429D02*
X169826762Y-115982667D01*
X169731524Y-116077905D01*
X169541048Y-116125524D01*
X169207714Y-116125524D01*
X169017238Y-116077905D01*
X168922000Y-115982667D01*
X168874381Y-115887429D01*
X168874381Y-115696952D01*
X168922000Y-115601714D01*
X169017238Y-115506476D01*
X169207714Y-115458857D01*
X169541048Y-115458857D01*
X169731524Y-115506476D01*
X169826762Y-115601714D01*
X169874381Y-115696952D01*
X169874381Y-115887429D01*
X168969619Y-115077905D02*
X168922000Y-115030286D01*
X168874381Y-114935048D01*
X168874381Y-114696952D01*
X168922000Y-114601714D01*
X168969619Y-114554095D01*
X169064857Y-114506476D01*
X169160095Y-114506476D01*
X169302952Y-114554095D01*
X169874381Y-115125524D01*
X169874381Y-114506476D01*
M02*
