G04 #@! TF.FileFunction,Legend,Top*
%FSLAX46Y46*%
G04 Gerber Fmt 4.6, Leading zero omitted, Abs format (unit mm)*
G04 Created by KiCad (PCBNEW 4.0.4-stable) date 04/25/17 22:02:41*
%MOMM*%
%LPD*%
G01*
G04 APERTURE LIST*
%ADD10C,0.100000*%
%ADD11C,0.300000*%
%ADD12C,0.150000*%
%ADD13C,0.120000*%
G04 APERTURE END LIST*
D10*
D11*
X152316858Y-126638857D02*
X152531144Y-126710286D01*
X152602572Y-126781714D01*
X152674001Y-126924571D01*
X152674001Y-127138857D01*
X152602572Y-127281714D01*
X152531144Y-127353143D01*
X152388286Y-127424571D01*
X151816858Y-127424571D01*
X151816858Y-125924571D01*
X152316858Y-125924571D01*
X152459715Y-125996000D01*
X152531144Y-126067429D01*
X152602572Y-126210286D01*
X152602572Y-126353143D01*
X152531144Y-126496000D01*
X152459715Y-126567429D01*
X152316858Y-126638857D01*
X151816858Y-126638857D01*
X153316858Y-127424571D02*
X153316858Y-125924571D01*
X153959715Y-126996000D02*
X154674001Y-126996000D01*
X153816858Y-127424571D02*
X154316858Y-125924571D01*
X154816858Y-127424571D01*
X155245429Y-127353143D02*
X155459715Y-127424571D01*
X155816858Y-127424571D01*
X155959715Y-127353143D01*
X156031144Y-127281714D01*
X156102572Y-127138857D01*
X156102572Y-126996000D01*
X156031144Y-126853143D01*
X155959715Y-126781714D01*
X155816858Y-126710286D01*
X155531144Y-126638857D01*
X155388286Y-126567429D01*
X155316858Y-126496000D01*
X155245429Y-126353143D01*
X155245429Y-126210286D01*
X155316858Y-126067429D01*
X155388286Y-125996000D01*
X155531144Y-125924571D01*
X155888286Y-125924571D01*
X156102572Y-125996000D01*
X177383429Y-97309714D02*
X177312000Y-97381143D01*
X177097714Y-97452571D01*
X176954857Y-97452571D01*
X176740572Y-97381143D01*
X176597714Y-97238286D01*
X176526286Y-97095429D01*
X176454857Y-96809714D01*
X176454857Y-96595429D01*
X176526286Y-96309714D01*
X176597714Y-96166857D01*
X176740572Y-96024000D01*
X176954857Y-95952571D01*
X177097714Y-95952571D01*
X177312000Y-96024000D01*
X177383429Y-96095429D01*
X178312000Y-95952571D02*
X178597714Y-95952571D01*
X178740572Y-96024000D01*
X178883429Y-96166857D01*
X178954857Y-96452571D01*
X178954857Y-96952571D01*
X178883429Y-97238286D01*
X178740572Y-97381143D01*
X178597714Y-97452571D01*
X178312000Y-97452571D01*
X178169143Y-97381143D01*
X178026286Y-97238286D01*
X177954857Y-96952571D01*
X177954857Y-96452571D01*
X178026286Y-96166857D01*
X178169143Y-96024000D01*
X178312000Y-95952571D01*
X179597715Y-97452571D02*
X179597715Y-95952571D01*
X180097715Y-97024000D01*
X180597715Y-95952571D01*
X180597715Y-97452571D01*
X171505714Y-97452571D02*
X171505714Y-95952571D01*
X172362857Y-97452571D01*
X172362857Y-95952571D01*
X173362857Y-95952571D02*
X173648571Y-95952571D01*
X173791429Y-96024000D01*
X173934286Y-96166857D01*
X174005714Y-96452571D01*
X174005714Y-96952571D01*
X173934286Y-97238286D01*
X173791429Y-97381143D01*
X173648571Y-97452571D01*
X173362857Y-97452571D01*
X173220000Y-97381143D01*
X173077143Y-97238286D01*
X173005714Y-96952571D01*
X173005714Y-96452571D01*
X173077143Y-96166857D01*
X173220000Y-96024000D01*
X173362857Y-95952571D01*
X163159429Y-69258571D02*
X163159429Y-67758571D01*
X164016572Y-69258571D01*
X164016572Y-67758571D01*
X165588001Y-69115714D02*
X165516572Y-69187143D01*
X165302286Y-69258571D01*
X165159429Y-69258571D01*
X164945144Y-69187143D01*
X164802286Y-69044286D01*
X164730858Y-68901429D01*
X164659429Y-68615714D01*
X164659429Y-68401429D01*
X164730858Y-68115714D01*
X164802286Y-67972857D01*
X164945144Y-67830000D01*
X165159429Y-67758571D01*
X165302286Y-67758571D01*
X165516572Y-67830000D01*
X165588001Y-67901429D01*
X145415143Y-72656000D02*
X145272286Y-72584571D01*
X145058000Y-72584571D01*
X144843715Y-72656000D01*
X144700857Y-72798857D01*
X144629429Y-72941714D01*
X144558000Y-73227429D01*
X144558000Y-73441714D01*
X144629429Y-73727429D01*
X144700857Y-73870286D01*
X144843715Y-74013143D01*
X145058000Y-74084571D01*
X145200857Y-74084571D01*
X145415143Y-74013143D01*
X145486572Y-73941714D01*
X145486572Y-73441714D01*
X145200857Y-73441714D01*
X146129429Y-74084571D02*
X146129429Y-72584571D01*
X146986572Y-74084571D01*
X146986572Y-72584571D01*
X147700858Y-74084571D02*
X147700858Y-72584571D01*
X148058001Y-72584571D01*
X148272286Y-72656000D01*
X148415144Y-72798857D01*
X148486572Y-72941714D01*
X148558001Y-73227429D01*
X148558001Y-73441714D01*
X148486572Y-73727429D01*
X148415144Y-73870286D01*
X148272286Y-74013143D01*
X148058001Y-74084571D01*
X147700858Y-74084571D01*
X144169144Y-68433143D02*
X145312001Y-68433143D01*
X144740572Y-69004571D02*
X144740572Y-67861714D01*
X146812001Y-69004571D02*
X145954858Y-69004571D01*
X146383430Y-69004571D02*
X146383430Y-67504571D01*
X146240573Y-67718857D01*
X146097715Y-67861714D01*
X145954858Y-67933143D01*
X147383429Y-67647429D02*
X147454858Y-67576000D01*
X147597715Y-67504571D01*
X147954858Y-67504571D01*
X148097715Y-67576000D01*
X148169144Y-67647429D01*
X148240572Y-67790286D01*
X148240572Y-67933143D01*
X148169144Y-68147429D01*
X147312001Y-69004571D01*
X148240572Y-69004571D01*
X148669143Y-67504571D02*
X149169143Y-69004571D01*
X149669143Y-67504571D01*
D12*
X183896000Y-128016000D02*
X183896000Y-64770000D01*
X101600000Y-128016000D02*
X101600000Y-64770000D01*
X183896000Y-128016000D02*
X101600000Y-128016000D01*
X101600000Y-64770000D02*
X183896000Y-64770000D01*
D13*
X136354000Y-115300000D02*
X136354000Y-117360000D01*
X136354000Y-117360000D02*
X138474000Y-117360000D01*
X138474000Y-117360000D02*
X138474000Y-115300000D01*
X138474000Y-115300000D02*
X136354000Y-115300000D01*
X136354000Y-114300000D02*
X136354000Y-113240000D01*
X136354000Y-113240000D02*
X137414000Y-113240000D01*
X125567000Y-123946000D02*
X121147000Y-123946000D01*
X125567000Y-121926000D02*
X121147000Y-121926000D01*
X125567000Y-123946000D02*
X125567000Y-123932000D01*
X125567000Y-121940000D02*
X125567000Y-121926000D01*
X121147000Y-123946000D02*
X121147000Y-123932000D01*
X121147000Y-121940000D02*
X121147000Y-121926000D01*
X132272000Y-92710000D02*
G75*
G03X132272000Y-92710000I-7090000J0D01*
G01*
X125182000Y-85660000D02*
X125182000Y-99760000D01*
X125222000Y-85660000D02*
X125222000Y-99760000D01*
X125262000Y-85660000D02*
X125262000Y-99760000D01*
X125302000Y-85661000D02*
X125302000Y-99759000D01*
X125342000Y-85661000D02*
X125342000Y-99759000D01*
X125382000Y-85662000D02*
X125382000Y-99758000D01*
X125422000Y-85664000D02*
X125422000Y-99756000D01*
X125462000Y-85665000D02*
X125462000Y-99755000D01*
X125502000Y-85667000D02*
X125502000Y-99753000D01*
X125542000Y-85669000D02*
X125542000Y-99751000D01*
X125582000Y-85671000D02*
X125582000Y-99749000D01*
X125622000Y-85673000D02*
X125622000Y-99747000D01*
X125662000Y-85676000D02*
X125662000Y-99744000D01*
X125702000Y-85679000D02*
X125702000Y-99741000D01*
X125742000Y-85682000D02*
X125742000Y-99738000D01*
X125782000Y-85685000D02*
X125782000Y-99735000D01*
X125822000Y-85688000D02*
X125822000Y-99732000D01*
X125862000Y-85692000D02*
X125862000Y-99728000D01*
X125903000Y-85696000D02*
X125903000Y-99724000D01*
X125943000Y-85700000D02*
X125943000Y-99720000D01*
X125983000Y-85705000D02*
X125983000Y-99715000D01*
X126023000Y-85709000D02*
X126023000Y-99711000D01*
X126063000Y-85714000D02*
X126063000Y-99706000D01*
X126103000Y-85719000D02*
X126103000Y-99701000D01*
X126143000Y-85725000D02*
X126143000Y-99695000D01*
X126183000Y-85730000D02*
X126183000Y-99690000D01*
X126223000Y-85736000D02*
X126223000Y-99684000D01*
X126263000Y-85742000D02*
X126263000Y-99678000D01*
X126303000Y-85749000D02*
X126303000Y-91330000D01*
X126303000Y-94090000D02*
X126303000Y-99671000D01*
X126343000Y-85755000D02*
X126343000Y-91330000D01*
X126343000Y-94090000D02*
X126343000Y-99665000D01*
X126383000Y-85762000D02*
X126383000Y-91330000D01*
X126383000Y-94090000D02*
X126383000Y-99658000D01*
X126423000Y-85769000D02*
X126423000Y-91330000D01*
X126423000Y-94090000D02*
X126423000Y-99651000D01*
X126463000Y-85776000D02*
X126463000Y-91330000D01*
X126463000Y-94090000D02*
X126463000Y-99644000D01*
X126503000Y-85783000D02*
X126503000Y-91330000D01*
X126503000Y-94090000D02*
X126503000Y-99637000D01*
X126543000Y-85791000D02*
X126543000Y-91330000D01*
X126543000Y-94090000D02*
X126543000Y-99629000D01*
X126583000Y-85799000D02*
X126583000Y-91330000D01*
X126583000Y-94090000D02*
X126583000Y-99621000D01*
X126623000Y-85807000D02*
X126623000Y-91330000D01*
X126623000Y-94090000D02*
X126623000Y-99613000D01*
X126663000Y-85816000D02*
X126663000Y-91330000D01*
X126663000Y-94090000D02*
X126663000Y-99604000D01*
X126703000Y-85824000D02*
X126703000Y-91330000D01*
X126703000Y-94090000D02*
X126703000Y-99596000D01*
X126743000Y-85833000D02*
X126743000Y-91330000D01*
X126743000Y-94090000D02*
X126743000Y-99587000D01*
X126783000Y-85842000D02*
X126783000Y-91330000D01*
X126783000Y-94090000D02*
X126783000Y-99578000D01*
X126823000Y-85852000D02*
X126823000Y-91330000D01*
X126823000Y-94090000D02*
X126823000Y-99568000D01*
X126863000Y-85861000D02*
X126863000Y-91330000D01*
X126863000Y-94090000D02*
X126863000Y-99559000D01*
X126903000Y-85871000D02*
X126903000Y-91330000D01*
X126903000Y-94090000D02*
X126903000Y-99549000D01*
X126943000Y-85881000D02*
X126943000Y-91330000D01*
X126943000Y-94090000D02*
X126943000Y-99539000D01*
X126983000Y-85892000D02*
X126983000Y-91330000D01*
X126983000Y-94090000D02*
X126983000Y-99528000D01*
X127023000Y-85902000D02*
X127023000Y-91330000D01*
X127023000Y-94090000D02*
X127023000Y-99518000D01*
X127063000Y-85913000D02*
X127063000Y-91330000D01*
X127063000Y-94090000D02*
X127063000Y-99507000D01*
X127103000Y-85924000D02*
X127103000Y-91330000D01*
X127103000Y-94090000D02*
X127103000Y-99496000D01*
X127143000Y-85936000D02*
X127143000Y-91330000D01*
X127143000Y-94090000D02*
X127143000Y-99484000D01*
X127183000Y-85947000D02*
X127183000Y-91330000D01*
X127183000Y-94090000D02*
X127183000Y-99473000D01*
X127223000Y-85959000D02*
X127223000Y-91330000D01*
X127223000Y-94090000D02*
X127223000Y-99461000D01*
X127263000Y-85971000D02*
X127263000Y-91330000D01*
X127263000Y-94090000D02*
X127263000Y-99449000D01*
X127303000Y-85984000D02*
X127303000Y-91330000D01*
X127303000Y-94090000D02*
X127303000Y-99436000D01*
X127343000Y-85997000D02*
X127343000Y-91330000D01*
X127343000Y-94090000D02*
X127343000Y-99423000D01*
X127383000Y-86009000D02*
X127383000Y-91330000D01*
X127383000Y-94090000D02*
X127383000Y-99411000D01*
X127423000Y-86023000D02*
X127423000Y-91330000D01*
X127423000Y-94090000D02*
X127423000Y-99397000D01*
X127463000Y-86036000D02*
X127463000Y-91330000D01*
X127463000Y-94090000D02*
X127463000Y-99384000D01*
X127503000Y-86050000D02*
X127503000Y-91330000D01*
X127503000Y-94090000D02*
X127503000Y-99370000D01*
X127543000Y-86064000D02*
X127543000Y-91330000D01*
X127543000Y-94090000D02*
X127543000Y-99356000D01*
X127583000Y-86078000D02*
X127583000Y-91330000D01*
X127583000Y-94090000D02*
X127583000Y-99342000D01*
X127623000Y-86093000D02*
X127623000Y-91330000D01*
X127623000Y-94090000D02*
X127623000Y-99327000D01*
X127663000Y-86107000D02*
X127663000Y-91330000D01*
X127663000Y-94090000D02*
X127663000Y-99313000D01*
X127703000Y-86122000D02*
X127703000Y-91330000D01*
X127703000Y-94090000D02*
X127703000Y-99298000D01*
X127743000Y-86138000D02*
X127743000Y-91330000D01*
X127743000Y-94090000D02*
X127743000Y-99282000D01*
X127783000Y-86153000D02*
X127783000Y-91330000D01*
X127783000Y-94090000D02*
X127783000Y-99267000D01*
X127823000Y-86169000D02*
X127823000Y-91330000D01*
X127823000Y-94090000D02*
X127823000Y-99251000D01*
X127863000Y-86186000D02*
X127863000Y-91330000D01*
X127863000Y-94090000D02*
X127863000Y-99234000D01*
X127903000Y-86202000D02*
X127903000Y-91330000D01*
X127903000Y-94090000D02*
X127903000Y-99218000D01*
X127943000Y-86219000D02*
X127943000Y-91330000D01*
X127943000Y-94090000D02*
X127943000Y-99201000D01*
X127983000Y-86236000D02*
X127983000Y-91330000D01*
X127983000Y-94090000D02*
X127983000Y-99184000D01*
X128023000Y-86253000D02*
X128023000Y-91330000D01*
X128023000Y-94090000D02*
X128023000Y-99167000D01*
X128063000Y-86271000D02*
X128063000Y-91330000D01*
X128063000Y-94090000D02*
X128063000Y-99149000D01*
X128103000Y-86289000D02*
X128103000Y-91330000D01*
X128103000Y-94090000D02*
X128103000Y-99131000D01*
X128143000Y-86307000D02*
X128143000Y-91330000D01*
X128143000Y-94090000D02*
X128143000Y-99113000D01*
X128183000Y-86325000D02*
X128183000Y-91330000D01*
X128183000Y-94090000D02*
X128183000Y-99095000D01*
X128223000Y-86344000D02*
X128223000Y-91330000D01*
X128223000Y-94090000D02*
X128223000Y-99076000D01*
X128263000Y-86363000D02*
X128263000Y-91330000D01*
X128263000Y-94090000D02*
X128263000Y-99057000D01*
X128303000Y-86383000D02*
X128303000Y-91330000D01*
X128303000Y-94090000D02*
X128303000Y-99037000D01*
X128343000Y-86403000D02*
X128343000Y-91330000D01*
X128343000Y-94090000D02*
X128343000Y-99017000D01*
X128383000Y-86423000D02*
X128383000Y-91330000D01*
X128383000Y-94090000D02*
X128383000Y-98997000D01*
X128423000Y-86443000D02*
X128423000Y-91330000D01*
X128423000Y-94090000D02*
X128423000Y-98977000D01*
X128463000Y-86464000D02*
X128463000Y-91330000D01*
X128463000Y-94090000D02*
X128463000Y-98956000D01*
X128503000Y-86485000D02*
X128503000Y-91330000D01*
X128503000Y-94090000D02*
X128503000Y-98935000D01*
X128543000Y-86506000D02*
X128543000Y-91330000D01*
X128543000Y-94090000D02*
X128543000Y-98914000D01*
X128583000Y-86528000D02*
X128583000Y-91330000D01*
X128583000Y-94090000D02*
X128583000Y-98892000D01*
X128623000Y-86550000D02*
X128623000Y-91330000D01*
X128623000Y-94090000D02*
X128623000Y-98870000D01*
X128663000Y-86572000D02*
X128663000Y-91330000D01*
X128663000Y-94090000D02*
X128663000Y-98848000D01*
X128703000Y-86595000D02*
X128703000Y-91330000D01*
X128703000Y-94090000D02*
X128703000Y-98825000D01*
X128743000Y-86618000D02*
X128743000Y-91330000D01*
X128743000Y-94090000D02*
X128743000Y-98802000D01*
X128783000Y-86641000D02*
X128783000Y-91330000D01*
X128783000Y-94090000D02*
X128783000Y-98779000D01*
X128823000Y-86665000D02*
X128823000Y-91330000D01*
X128823000Y-94090000D02*
X128823000Y-98755000D01*
X128863000Y-86689000D02*
X128863000Y-91330000D01*
X128863000Y-94090000D02*
X128863000Y-98731000D01*
X128903000Y-86714000D02*
X128903000Y-91330000D01*
X128903000Y-94090000D02*
X128903000Y-98706000D01*
X128943000Y-86739000D02*
X128943000Y-91330000D01*
X128943000Y-94090000D02*
X128943000Y-98681000D01*
X128983000Y-86764000D02*
X128983000Y-91330000D01*
X128983000Y-94090000D02*
X128983000Y-98656000D01*
X129023000Y-86789000D02*
X129023000Y-91330000D01*
X129023000Y-94090000D02*
X129023000Y-98631000D01*
X129063000Y-86815000D02*
X129063000Y-98605000D01*
X129103000Y-86842000D02*
X129103000Y-98578000D01*
X129143000Y-86868000D02*
X129143000Y-98552000D01*
X129183000Y-86896000D02*
X129183000Y-98524000D01*
X129223000Y-86923000D02*
X129223000Y-98497000D01*
X129263000Y-86951000D02*
X129263000Y-98469000D01*
X129303000Y-86979000D02*
X129303000Y-98441000D01*
X129343000Y-87008000D02*
X129343000Y-98412000D01*
X129383000Y-87037000D02*
X129383000Y-98383000D01*
X129423000Y-87067000D02*
X129423000Y-98353000D01*
X129463000Y-87097000D02*
X129463000Y-98323000D01*
X129503000Y-87128000D02*
X129503000Y-98292000D01*
X129543000Y-87159000D02*
X129543000Y-98261000D01*
X129583000Y-87190000D02*
X129583000Y-98230000D01*
X129623000Y-87222000D02*
X129623000Y-98198000D01*
X129663000Y-87254000D02*
X129663000Y-98166000D01*
X129703000Y-87287000D02*
X129703000Y-98133000D01*
X129743000Y-87320000D02*
X129743000Y-98100000D01*
X129783000Y-87354000D02*
X129783000Y-98066000D01*
X129823000Y-87389000D02*
X129823000Y-98031000D01*
X129863000Y-87424000D02*
X129863000Y-97996000D01*
X129903000Y-87459000D02*
X129903000Y-97961000D01*
X129943000Y-87495000D02*
X129943000Y-97925000D01*
X129983000Y-87531000D02*
X129983000Y-97889000D01*
X130023000Y-87569000D02*
X130023000Y-97851000D01*
X130063000Y-87606000D02*
X130063000Y-97814000D01*
X130103000Y-87644000D02*
X130103000Y-97776000D01*
X130143000Y-87683000D02*
X130143000Y-97737000D01*
X130183000Y-87723000D02*
X130183000Y-97697000D01*
X130223000Y-87763000D02*
X130223000Y-97657000D01*
X130263000Y-87804000D02*
X130263000Y-97616000D01*
X130303000Y-87845000D02*
X130303000Y-97575000D01*
X130343000Y-87887000D02*
X130343000Y-97533000D01*
X130383000Y-87930000D02*
X130383000Y-97490000D01*
X130423000Y-87973000D02*
X130423000Y-97447000D01*
X130463000Y-88018000D02*
X130463000Y-97402000D01*
X130503000Y-88063000D02*
X130503000Y-97357000D01*
X130543000Y-88109000D02*
X130543000Y-97311000D01*
X130583000Y-88155000D02*
X130583000Y-97265000D01*
X130623000Y-88203000D02*
X130623000Y-97217000D01*
X130663000Y-88251000D02*
X130663000Y-97169000D01*
X130703000Y-88300000D02*
X130703000Y-97120000D01*
X130743000Y-88350000D02*
X130743000Y-97070000D01*
X130783000Y-88401000D02*
X130783000Y-97019000D01*
X130823000Y-88453000D02*
X130823000Y-96967000D01*
X130863000Y-88506000D02*
X130863000Y-96914000D01*
X130903000Y-88560000D02*
X130903000Y-96860000D01*
X130943000Y-88615000D02*
X130943000Y-96805000D01*
X130983000Y-88672000D02*
X130983000Y-96748000D01*
X131023000Y-88729000D02*
X131023000Y-96691000D01*
X131063000Y-88788000D02*
X131063000Y-96632000D01*
X131103000Y-88848000D02*
X131103000Y-96572000D01*
X131143000Y-88909000D02*
X131143000Y-96511000D01*
X131183000Y-88972000D02*
X131183000Y-96448000D01*
X131223000Y-89036000D02*
X131223000Y-96384000D01*
X131263000Y-89102000D02*
X131263000Y-96318000D01*
X131303000Y-89170000D02*
X131303000Y-96250000D01*
X131343000Y-89239000D02*
X131343000Y-96181000D01*
X131383000Y-89310000D02*
X131383000Y-96110000D01*
X131423000Y-89383000D02*
X131423000Y-96037000D01*
X131463000Y-89459000D02*
X131463000Y-95961000D01*
X131503000Y-89536000D02*
X131503000Y-95884000D01*
X131543000Y-89616000D02*
X131543000Y-95804000D01*
X131583000Y-89699000D02*
X131583000Y-95721000D01*
X131623000Y-89784000D02*
X131623000Y-95636000D01*
X131663000Y-89872000D02*
X131663000Y-95548000D01*
X131703000Y-89964000D02*
X131703000Y-95456000D01*
X131743000Y-90060000D02*
X131743000Y-95360000D01*
X131783000Y-90160000D02*
X131783000Y-95260000D01*
X131823000Y-90264000D02*
X131823000Y-95156000D01*
X131863000Y-90373000D02*
X131863000Y-95047000D01*
X131903000Y-90489000D02*
X131903000Y-94931000D01*
X131943000Y-90612000D02*
X131943000Y-94808000D01*
X131983000Y-90742000D02*
X131983000Y-94678000D01*
X132023000Y-90883000D02*
X132023000Y-94537000D01*
X132063000Y-91037000D02*
X132063000Y-94383000D01*
X132103000Y-91206000D02*
X132103000Y-94214000D01*
X132143000Y-91398000D02*
X132143000Y-94022000D01*
X132183000Y-91623000D02*
X132183000Y-93797000D01*
X132223000Y-91909000D02*
X132223000Y-93511000D01*
X132263000Y-92373000D02*
X132263000Y-93047000D01*
X119482000Y-92710000D02*
X121282000Y-92710000D01*
X120382000Y-91810000D02*
X120382000Y-93610000D01*
X135884000Y-68362000D02*
X135884000Y-72782000D01*
X133864000Y-68362000D02*
X133864000Y-72782000D01*
X135884000Y-68362000D02*
X135870000Y-68362000D01*
X133878000Y-68362000D02*
X133864000Y-68362000D01*
X135884000Y-72782000D02*
X135870000Y-72782000D01*
X133878000Y-72782000D02*
X133864000Y-72782000D01*
X129478000Y-74422000D02*
G75*
G03X129478000Y-74422000I-7090000J0D01*
G01*
X122388000Y-67372000D02*
X122388000Y-81472000D01*
X122428000Y-67372000D02*
X122428000Y-81472000D01*
X122468000Y-67372000D02*
X122468000Y-81472000D01*
X122508000Y-67373000D02*
X122508000Y-81471000D01*
X122548000Y-67373000D02*
X122548000Y-81471000D01*
X122588000Y-67374000D02*
X122588000Y-81470000D01*
X122628000Y-67376000D02*
X122628000Y-81468000D01*
X122668000Y-67377000D02*
X122668000Y-81467000D01*
X122708000Y-67379000D02*
X122708000Y-81465000D01*
X122748000Y-67381000D02*
X122748000Y-81463000D01*
X122788000Y-67383000D02*
X122788000Y-81461000D01*
X122828000Y-67385000D02*
X122828000Y-81459000D01*
X122868000Y-67388000D02*
X122868000Y-81456000D01*
X122908000Y-67391000D02*
X122908000Y-81453000D01*
X122948000Y-67394000D02*
X122948000Y-81450000D01*
X122988000Y-67397000D02*
X122988000Y-81447000D01*
X123028000Y-67400000D02*
X123028000Y-81444000D01*
X123068000Y-67404000D02*
X123068000Y-81440000D01*
X123109000Y-67408000D02*
X123109000Y-81436000D01*
X123149000Y-67412000D02*
X123149000Y-81432000D01*
X123189000Y-67417000D02*
X123189000Y-81427000D01*
X123229000Y-67421000D02*
X123229000Y-81423000D01*
X123269000Y-67426000D02*
X123269000Y-81418000D01*
X123309000Y-67431000D02*
X123309000Y-81413000D01*
X123349000Y-67437000D02*
X123349000Y-81407000D01*
X123389000Y-67442000D02*
X123389000Y-81402000D01*
X123429000Y-67448000D02*
X123429000Y-81396000D01*
X123469000Y-67454000D02*
X123469000Y-81390000D01*
X123509000Y-67461000D02*
X123509000Y-73042000D01*
X123509000Y-75802000D02*
X123509000Y-81383000D01*
X123549000Y-67467000D02*
X123549000Y-73042000D01*
X123549000Y-75802000D02*
X123549000Y-81377000D01*
X123589000Y-67474000D02*
X123589000Y-73042000D01*
X123589000Y-75802000D02*
X123589000Y-81370000D01*
X123629000Y-67481000D02*
X123629000Y-73042000D01*
X123629000Y-75802000D02*
X123629000Y-81363000D01*
X123669000Y-67488000D02*
X123669000Y-73042000D01*
X123669000Y-75802000D02*
X123669000Y-81356000D01*
X123709000Y-67495000D02*
X123709000Y-73042000D01*
X123709000Y-75802000D02*
X123709000Y-81349000D01*
X123749000Y-67503000D02*
X123749000Y-73042000D01*
X123749000Y-75802000D02*
X123749000Y-81341000D01*
X123789000Y-67511000D02*
X123789000Y-73042000D01*
X123789000Y-75802000D02*
X123789000Y-81333000D01*
X123829000Y-67519000D02*
X123829000Y-73042000D01*
X123829000Y-75802000D02*
X123829000Y-81325000D01*
X123869000Y-67528000D02*
X123869000Y-73042000D01*
X123869000Y-75802000D02*
X123869000Y-81316000D01*
X123909000Y-67536000D02*
X123909000Y-73042000D01*
X123909000Y-75802000D02*
X123909000Y-81308000D01*
X123949000Y-67545000D02*
X123949000Y-73042000D01*
X123949000Y-75802000D02*
X123949000Y-81299000D01*
X123989000Y-67554000D02*
X123989000Y-73042000D01*
X123989000Y-75802000D02*
X123989000Y-81290000D01*
X124029000Y-67564000D02*
X124029000Y-73042000D01*
X124029000Y-75802000D02*
X124029000Y-81280000D01*
X124069000Y-67573000D02*
X124069000Y-73042000D01*
X124069000Y-75802000D02*
X124069000Y-81271000D01*
X124109000Y-67583000D02*
X124109000Y-73042000D01*
X124109000Y-75802000D02*
X124109000Y-81261000D01*
X124149000Y-67593000D02*
X124149000Y-73042000D01*
X124149000Y-75802000D02*
X124149000Y-81251000D01*
X124189000Y-67604000D02*
X124189000Y-73042000D01*
X124189000Y-75802000D02*
X124189000Y-81240000D01*
X124229000Y-67614000D02*
X124229000Y-73042000D01*
X124229000Y-75802000D02*
X124229000Y-81230000D01*
X124269000Y-67625000D02*
X124269000Y-73042000D01*
X124269000Y-75802000D02*
X124269000Y-81219000D01*
X124309000Y-67636000D02*
X124309000Y-73042000D01*
X124309000Y-75802000D02*
X124309000Y-81208000D01*
X124349000Y-67648000D02*
X124349000Y-73042000D01*
X124349000Y-75802000D02*
X124349000Y-81196000D01*
X124389000Y-67659000D02*
X124389000Y-73042000D01*
X124389000Y-75802000D02*
X124389000Y-81185000D01*
X124429000Y-67671000D02*
X124429000Y-73042000D01*
X124429000Y-75802000D02*
X124429000Y-81173000D01*
X124469000Y-67683000D02*
X124469000Y-73042000D01*
X124469000Y-75802000D02*
X124469000Y-81161000D01*
X124509000Y-67696000D02*
X124509000Y-73042000D01*
X124509000Y-75802000D02*
X124509000Y-81148000D01*
X124549000Y-67709000D02*
X124549000Y-73042000D01*
X124549000Y-75802000D02*
X124549000Y-81135000D01*
X124589000Y-67721000D02*
X124589000Y-73042000D01*
X124589000Y-75802000D02*
X124589000Y-81123000D01*
X124629000Y-67735000D02*
X124629000Y-73042000D01*
X124629000Y-75802000D02*
X124629000Y-81109000D01*
X124669000Y-67748000D02*
X124669000Y-73042000D01*
X124669000Y-75802000D02*
X124669000Y-81096000D01*
X124709000Y-67762000D02*
X124709000Y-73042000D01*
X124709000Y-75802000D02*
X124709000Y-81082000D01*
X124749000Y-67776000D02*
X124749000Y-73042000D01*
X124749000Y-75802000D02*
X124749000Y-81068000D01*
X124789000Y-67790000D02*
X124789000Y-73042000D01*
X124789000Y-75802000D02*
X124789000Y-81054000D01*
X124829000Y-67805000D02*
X124829000Y-73042000D01*
X124829000Y-75802000D02*
X124829000Y-81039000D01*
X124869000Y-67819000D02*
X124869000Y-73042000D01*
X124869000Y-75802000D02*
X124869000Y-81025000D01*
X124909000Y-67834000D02*
X124909000Y-73042000D01*
X124909000Y-75802000D02*
X124909000Y-81010000D01*
X124949000Y-67850000D02*
X124949000Y-73042000D01*
X124949000Y-75802000D02*
X124949000Y-80994000D01*
X124989000Y-67865000D02*
X124989000Y-73042000D01*
X124989000Y-75802000D02*
X124989000Y-80979000D01*
X125029000Y-67881000D02*
X125029000Y-73042000D01*
X125029000Y-75802000D02*
X125029000Y-80963000D01*
X125069000Y-67898000D02*
X125069000Y-73042000D01*
X125069000Y-75802000D02*
X125069000Y-80946000D01*
X125109000Y-67914000D02*
X125109000Y-73042000D01*
X125109000Y-75802000D02*
X125109000Y-80930000D01*
X125149000Y-67931000D02*
X125149000Y-73042000D01*
X125149000Y-75802000D02*
X125149000Y-80913000D01*
X125189000Y-67948000D02*
X125189000Y-73042000D01*
X125189000Y-75802000D02*
X125189000Y-80896000D01*
X125229000Y-67965000D02*
X125229000Y-73042000D01*
X125229000Y-75802000D02*
X125229000Y-80879000D01*
X125269000Y-67983000D02*
X125269000Y-73042000D01*
X125269000Y-75802000D02*
X125269000Y-80861000D01*
X125309000Y-68001000D02*
X125309000Y-73042000D01*
X125309000Y-75802000D02*
X125309000Y-80843000D01*
X125349000Y-68019000D02*
X125349000Y-73042000D01*
X125349000Y-75802000D02*
X125349000Y-80825000D01*
X125389000Y-68037000D02*
X125389000Y-73042000D01*
X125389000Y-75802000D02*
X125389000Y-80807000D01*
X125429000Y-68056000D02*
X125429000Y-73042000D01*
X125429000Y-75802000D02*
X125429000Y-80788000D01*
X125469000Y-68075000D02*
X125469000Y-73042000D01*
X125469000Y-75802000D02*
X125469000Y-80769000D01*
X125509000Y-68095000D02*
X125509000Y-73042000D01*
X125509000Y-75802000D02*
X125509000Y-80749000D01*
X125549000Y-68115000D02*
X125549000Y-73042000D01*
X125549000Y-75802000D02*
X125549000Y-80729000D01*
X125589000Y-68135000D02*
X125589000Y-73042000D01*
X125589000Y-75802000D02*
X125589000Y-80709000D01*
X125629000Y-68155000D02*
X125629000Y-73042000D01*
X125629000Y-75802000D02*
X125629000Y-80689000D01*
X125669000Y-68176000D02*
X125669000Y-73042000D01*
X125669000Y-75802000D02*
X125669000Y-80668000D01*
X125709000Y-68197000D02*
X125709000Y-73042000D01*
X125709000Y-75802000D02*
X125709000Y-80647000D01*
X125749000Y-68218000D02*
X125749000Y-73042000D01*
X125749000Y-75802000D02*
X125749000Y-80626000D01*
X125789000Y-68240000D02*
X125789000Y-73042000D01*
X125789000Y-75802000D02*
X125789000Y-80604000D01*
X125829000Y-68262000D02*
X125829000Y-73042000D01*
X125829000Y-75802000D02*
X125829000Y-80582000D01*
X125869000Y-68284000D02*
X125869000Y-73042000D01*
X125869000Y-75802000D02*
X125869000Y-80560000D01*
X125909000Y-68307000D02*
X125909000Y-73042000D01*
X125909000Y-75802000D02*
X125909000Y-80537000D01*
X125949000Y-68330000D02*
X125949000Y-73042000D01*
X125949000Y-75802000D02*
X125949000Y-80514000D01*
X125989000Y-68353000D02*
X125989000Y-73042000D01*
X125989000Y-75802000D02*
X125989000Y-80491000D01*
X126029000Y-68377000D02*
X126029000Y-73042000D01*
X126029000Y-75802000D02*
X126029000Y-80467000D01*
X126069000Y-68401000D02*
X126069000Y-73042000D01*
X126069000Y-75802000D02*
X126069000Y-80443000D01*
X126109000Y-68426000D02*
X126109000Y-73042000D01*
X126109000Y-75802000D02*
X126109000Y-80418000D01*
X126149000Y-68451000D02*
X126149000Y-73042000D01*
X126149000Y-75802000D02*
X126149000Y-80393000D01*
X126189000Y-68476000D02*
X126189000Y-73042000D01*
X126189000Y-75802000D02*
X126189000Y-80368000D01*
X126229000Y-68501000D02*
X126229000Y-73042000D01*
X126229000Y-75802000D02*
X126229000Y-80343000D01*
X126269000Y-68527000D02*
X126269000Y-80317000D01*
X126309000Y-68554000D02*
X126309000Y-80290000D01*
X126349000Y-68580000D02*
X126349000Y-80264000D01*
X126389000Y-68608000D02*
X126389000Y-80236000D01*
X126429000Y-68635000D02*
X126429000Y-80209000D01*
X126469000Y-68663000D02*
X126469000Y-80181000D01*
X126509000Y-68691000D02*
X126509000Y-80153000D01*
X126549000Y-68720000D02*
X126549000Y-80124000D01*
X126589000Y-68749000D02*
X126589000Y-80095000D01*
X126629000Y-68779000D02*
X126629000Y-80065000D01*
X126669000Y-68809000D02*
X126669000Y-80035000D01*
X126709000Y-68840000D02*
X126709000Y-80004000D01*
X126749000Y-68871000D02*
X126749000Y-79973000D01*
X126789000Y-68902000D02*
X126789000Y-79942000D01*
X126829000Y-68934000D02*
X126829000Y-79910000D01*
X126869000Y-68966000D02*
X126869000Y-79878000D01*
X126909000Y-68999000D02*
X126909000Y-79845000D01*
X126949000Y-69032000D02*
X126949000Y-79812000D01*
X126989000Y-69066000D02*
X126989000Y-79778000D01*
X127029000Y-69101000D02*
X127029000Y-79743000D01*
X127069000Y-69136000D02*
X127069000Y-79708000D01*
X127109000Y-69171000D02*
X127109000Y-79673000D01*
X127149000Y-69207000D02*
X127149000Y-79637000D01*
X127189000Y-69243000D02*
X127189000Y-79601000D01*
X127229000Y-69281000D02*
X127229000Y-79563000D01*
X127269000Y-69318000D02*
X127269000Y-79526000D01*
X127309000Y-69356000D02*
X127309000Y-79488000D01*
X127349000Y-69395000D02*
X127349000Y-79449000D01*
X127389000Y-69435000D02*
X127389000Y-79409000D01*
X127429000Y-69475000D02*
X127429000Y-79369000D01*
X127469000Y-69516000D02*
X127469000Y-79328000D01*
X127509000Y-69557000D02*
X127509000Y-79287000D01*
X127549000Y-69599000D02*
X127549000Y-79245000D01*
X127589000Y-69642000D02*
X127589000Y-79202000D01*
X127629000Y-69685000D02*
X127629000Y-79159000D01*
X127669000Y-69730000D02*
X127669000Y-79114000D01*
X127709000Y-69775000D02*
X127709000Y-79069000D01*
X127749000Y-69821000D02*
X127749000Y-79023000D01*
X127789000Y-69867000D02*
X127789000Y-78977000D01*
X127829000Y-69915000D02*
X127829000Y-78929000D01*
X127869000Y-69963000D02*
X127869000Y-78881000D01*
X127909000Y-70012000D02*
X127909000Y-78832000D01*
X127949000Y-70062000D02*
X127949000Y-78782000D01*
X127989000Y-70113000D02*
X127989000Y-78731000D01*
X128029000Y-70165000D02*
X128029000Y-78679000D01*
X128069000Y-70218000D02*
X128069000Y-78626000D01*
X128109000Y-70272000D02*
X128109000Y-78572000D01*
X128149000Y-70327000D02*
X128149000Y-78517000D01*
X128189000Y-70384000D02*
X128189000Y-78460000D01*
X128229000Y-70441000D02*
X128229000Y-78403000D01*
X128269000Y-70500000D02*
X128269000Y-78344000D01*
X128309000Y-70560000D02*
X128309000Y-78284000D01*
X128349000Y-70621000D02*
X128349000Y-78223000D01*
X128389000Y-70684000D02*
X128389000Y-78160000D01*
X128429000Y-70748000D02*
X128429000Y-78096000D01*
X128469000Y-70814000D02*
X128469000Y-78030000D01*
X128509000Y-70882000D02*
X128509000Y-77962000D01*
X128549000Y-70951000D02*
X128549000Y-77893000D01*
X128589000Y-71022000D02*
X128589000Y-77822000D01*
X128629000Y-71095000D02*
X128629000Y-77749000D01*
X128669000Y-71171000D02*
X128669000Y-77673000D01*
X128709000Y-71248000D02*
X128709000Y-77596000D01*
X128749000Y-71328000D02*
X128749000Y-77516000D01*
X128789000Y-71411000D02*
X128789000Y-77433000D01*
X128829000Y-71496000D02*
X128829000Y-77348000D01*
X128869000Y-71584000D02*
X128869000Y-77260000D01*
X128909000Y-71676000D02*
X128909000Y-77168000D01*
X128949000Y-71772000D02*
X128949000Y-77072000D01*
X128989000Y-71872000D02*
X128989000Y-76972000D01*
X129029000Y-71976000D02*
X129029000Y-76868000D01*
X129069000Y-72085000D02*
X129069000Y-76759000D01*
X129109000Y-72201000D02*
X129109000Y-76643000D01*
X129149000Y-72324000D02*
X129149000Y-76520000D01*
X129189000Y-72454000D02*
X129189000Y-76390000D01*
X129229000Y-72595000D02*
X129229000Y-76249000D01*
X129269000Y-72749000D02*
X129269000Y-76095000D01*
X129309000Y-72918000D02*
X129309000Y-75926000D01*
X129349000Y-73110000D02*
X129349000Y-75734000D01*
X129389000Y-73335000D02*
X129389000Y-75509000D01*
X129429000Y-73621000D02*
X129429000Y-75223000D01*
X129469000Y-74085000D02*
X129469000Y-74759000D01*
X116688000Y-74422000D02*
X118488000Y-74422000D01*
X117588000Y-73522000D02*
X117588000Y-75322000D01*
X152759665Y-106234608D02*
G75*
G03X155992000Y-106391516I1672335J1078608D01*
G01*
X152759665Y-104077392D02*
G75*
G02X155992000Y-103920484I1672335J-1078608D01*
G01*
X153390870Y-106235837D02*
G75*
G03X155472961Y-106236000I1041130J1079837D01*
G01*
X153390870Y-104076163D02*
G75*
G02X155472961Y-104076000I1041130J-1079837D01*
G01*
X155992000Y-106392000D02*
X155992000Y-106236000D01*
X155992000Y-104076000D02*
X155992000Y-103920000D01*
X142372000Y-81596000D02*
X138552000Y-81596000D01*
X138552000Y-81596000D02*
X138552000Y-90616000D01*
X138552000Y-90616000D02*
X142372000Y-90616000D01*
X142372000Y-90616000D02*
X142372000Y-81596000D01*
X140462000Y-81336000D02*
X140462000Y-81596000D01*
X140462000Y-90876000D02*
X140462000Y-90616000D01*
X142372000Y-82991000D02*
X138552000Y-82991000D01*
D12*
X180149500Y-69596000D02*
X180149500Y-89408000D01*
X173418500Y-89408000D02*
X180149500Y-89408000D01*
X173418500Y-89408000D02*
X173418500Y-69596000D01*
X173418500Y-69596000D02*
X180149500Y-69596000D01*
D13*
X169632000Y-114166000D02*
X179872000Y-114166000D01*
X169632000Y-98276000D02*
X179872000Y-98276000D01*
X169632000Y-98276000D02*
X169632000Y-114166000D01*
X179872000Y-98276000D02*
X179872000Y-114166000D01*
X172212000Y-114166000D02*
X172212000Y-116806000D01*
X174752000Y-114166000D02*
X174752000Y-116790000D01*
X177292000Y-114166000D02*
X177292000Y-116790000D01*
X144027000Y-113296000D02*
X140707000Y-113296000D01*
X140707000Y-113296000D02*
X140707000Y-122416000D01*
X140707000Y-122416000D02*
X144027000Y-122416000D01*
X144027000Y-122416000D02*
X144027000Y-113296000D01*
X142367000Y-112486000D02*
X142367000Y-113296000D01*
X142367000Y-123226000D02*
X142367000Y-122416000D01*
X147562000Y-106816000D02*
X147562000Y-103496000D01*
X147562000Y-103496000D02*
X138442000Y-103496000D01*
X138442000Y-103496000D02*
X138442000Y-106816000D01*
X138442000Y-106816000D02*
X147562000Y-106816000D01*
X148372000Y-105156000D02*
X147562000Y-105156000D01*
X137632000Y-105156000D02*
X138442000Y-105156000D01*
X155436000Y-102498000D02*
X155436000Y-99178000D01*
X155436000Y-99178000D02*
X146316000Y-99178000D01*
X146316000Y-99178000D02*
X146316000Y-102498000D01*
X146316000Y-102498000D02*
X155436000Y-102498000D01*
X156246000Y-100838000D02*
X155436000Y-100838000D01*
X145506000Y-100838000D02*
X146316000Y-100838000D01*
D12*
X149098000Y-115570000D02*
X149098000Y-125222000D01*
X149098000Y-125222000D02*
X158750000Y-125222000D01*
X158750000Y-115570000D02*
X158750000Y-125222000D01*
X158750000Y-115570000D02*
X149098000Y-115570000D01*
X146210000Y-86360000D02*
X146210000Y-78360000D01*
X146210000Y-78360000D02*
X168210000Y-78360000D01*
X168210000Y-78360000D02*
X168210000Y-94360000D01*
X168210000Y-94360000D02*
X146210000Y-94360000D01*
X146210000Y-94360000D02*
X146210000Y-86360000D01*
X151210000Y-80360000D02*
X154210000Y-80360000D01*
X154210000Y-80360000D02*
X154210000Y-83360000D01*
X154210000Y-83360000D02*
X153210000Y-84360000D01*
X153210000Y-84360000D02*
X154210000Y-85360000D01*
X154210000Y-85360000D02*
X153210000Y-86360000D01*
X153210000Y-86360000D02*
X154210000Y-87360000D01*
X154210000Y-87360000D02*
X153210000Y-88360000D01*
X153210000Y-88360000D02*
X154210000Y-89360000D01*
X154210000Y-89360000D02*
X154210000Y-90360000D01*
X154210000Y-90360000D02*
X150210000Y-90360000D01*
X150210000Y-90360000D02*
X150210000Y-91360000D01*
D13*
X103084000Y-93084000D02*
X113324000Y-93084000D01*
X103084000Y-77194000D02*
X113324000Y-77194000D01*
X103084000Y-77194000D02*
X103084000Y-93084000D01*
X113324000Y-77194000D02*
X113324000Y-93084000D01*
X105664000Y-93084000D02*
X105664000Y-95724000D01*
X108204000Y-93084000D02*
X108204000Y-95708000D01*
X110744000Y-93084000D02*
X110744000Y-95708000D01*
D12*
X115824000Y-101600000D02*
X133350000Y-101600000D01*
X115824000Y-101600000D02*
X115824000Y-105156000D01*
X106680000Y-105156000D02*
X115824000Y-105156000D01*
X106680000Y-105156000D02*
X106680000Y-117094000D01*
X106680000Y-117094000D02*
X115824000Y-117094000D01*
X115824000Y-117094000D02*
X115824000Y-120650000D01*
X115824000Y-120650000D02*
X133350000Y-120650000D01*
X133350000Y-101600000D02*
X133350000Y-120650000D01*
D13*
X109474000Y-99508000D02*
X104334000Y-99508000D01*
X104334000Y-99508000D02*
X104334000Y-102168000D01*
X104334000Y-102168000D02*
X109474000Y-102168000D01*
X109474000Y-102168000D02*
X109474000Y-99508000D01*
X110744000Y-99508000D02*
X112074000Y-99508000D01*
X112074000Y-99508000D02*
X112074000Y-100838000D01*
X164012000Y-113516000D02*
X164012000Y-117116000D01*
X164739205Y-112991816D02*
G75*
G03X164012000Y-113516000I1122795J-2324184D01*
G01*
X166960807Y-112959600D02*
G75*
G02X168462000Y-115316000I-1098807J-2356400D01*
G01*
X166960807Y-117672400D02*
G75*
G03X168462000Y-115316000I-1098807J2356400D01*
G01*
X164739205Y-117640184D02*
G75*
G02X164012000Y-117116000I1122795J2324184D01*
G01*
D12*
X156567143Y-87217142D02*
X156614762Y-87264761D01*
X156662381Y-87407618D01*
X156662381Y-87502856D01*
X156614762Y-87645714D01*
X156519524Y-87740952D01*
X156424286Y-87788571D01*
X156233810Y-87836190D01*
X156090952Y-87836190D01*
X155900476Y-87788571D01*
X155805238Y-87740952D01*
X155710000Y-87645714D01*
X155662381Y-87502856D01*
X155662381Y-87407618D01*
X155710000Y-87264761D01*
X155757619Y-87217142D01*
X155662381Y-86598095D02*
X155662381Y-86407618D01*
X155710000Y-86312380D01*
X155805238Y-86217142D01*
X155995714Y-86169523D01*
X156329048Y-86169523D01*
X156519524Y-86217142D01*
X156614762Y-86312380D01*
X156662381Y-86407618D01*
X156662381Y-86598095D01*
X156614762Y-86693333D01*
X156519524Y-86788571D01*
X156329048Y-86836190D01*
X155995714Y-86836190D01*
X155805238Y-86788571D01*
X155710000Y-86693333D01*
X155662381Y-86598095D01*
X156662381Y-85740952D02*
X155662381Y-85740952D01*
X156662381Y-84788571D02*
X156662381Y-85264762D01*
X155662381Y-85264762D01*
X161400476Y-90812381D02*
X161400476Y-89812381D01*
X161971905Y-90812381D01*
X161971905Y-89812381D01*
X162638571Y-89812381D02*
X162829048Y-89812381D01*
X162924286Y-89860000D01*
X163019524Y-89955238D01*
X163067143Y-90145714D01*
X163067143Y-90479048D01*
X163019524Y-90669524D01*
X162924286Y-90764762D01*
X162829048Y-90812381D01*
X162638571Y-90812381D01*
X162543333Y-90764762D01*
X162448095Y-90669524D01*
X162400476Y-90479048D01*
X162400476Y-90145714D01*
X162448095Y-89955238D01*
X162543333Y-89860000D01*
X162638571Y-89812381D01*
X161424286Y-82812381D02*
X161424286Y-81812381D01*
X161995715Y-82812381D01*
X161995715Y-81812381D01*
X163043334Y-82717143D02*
X162995715Y-82764762D01*
X162852858Y-82812381D01*
X162757620Y-82812381D01*
X162614762Y-82764762D01*
X162519524Y-82669524D01*
X162471905Y-82574286D01*
X162424286Y-82383810D01*
X162424286Y-82240952D01*
X162471905Y-82050476D01*
X162519524Y-81955238D01*
X162614762Y-81860000D01*
X162757620Y-81812381D01*
X162852858Y-81812381D01*
X162995715Y-81860000D01*
X163043334Y-81907619D01*
X150424286Y-86717143D02*
X150376667Y-86764762D01*
X150233810Y-86812381D01*
X150138572Y-86812381D01*
X149995714Y-86764762D01*
X149900476Y-86669524D01*
X149852857Y-86574286D01*
X149805238Y-86383810D01*
X149805238Y-86240952D01*
X149852857Y-86050476D01*
X149900476Y-85955238D01*
X149995714Y-85860000D01*
X150138572Y-85812381D01*
X150233810Y-85812381D01*
X150376667Y-85860000D01*
X150424286Y-85907619D01*
X151043333Y-85812381D02*
X151233810Y-85812381D01*
X151329048Y-85860000D01*
X151424286Y-85955238D01*
X151471905Y-86145714D01*
X151471905Y-86479048D01*
X151424286Y-86669524D01*
X151329048Y-86764762D01*
X151233810Y-86812381D01*
X151043333Y-86812381D01*
X150948095Y-86764762D01*
X150852857Y-86669524D01*
X150805238Y-86479048D01*
X150805238Y-86145714D01*
X150852857Y-85955238D01*
X150948095Y-85860000D01*
X151043333Y-85812381D01*
X151900476Y-86812381D02*
X151900476Y-85812381D01*
X152233810Y-86526667D01*
X152567143Y-85812381D01*
X152567143Y-86812381D01*
X128547905Y-104084381D02*
X128547905Y-103084381D01*
X128928858Y-103084381D01*
X129024096Y-103132000D01*
X129071715Y-103179619D01*
X129119334Y-103274857D01*
X129119334Y-103417714D01*
X129071715Y-103512952D01*
X129024096Y-103560571D01*
X128928858Y-103608190D01*
X128547905Y-103608190D01*
X130024096Y-103084381D02*
X129547905Y-103084381D01*
X129500286Y-103560571D01*
X129547905Y-103512952D01*
X129643143Y-103465333D01*
X129881239Y-103465333D01*
X129976477Y-103512952D01*
X130024096Y-103560571D01*
X130071715Y-103655810D01*
X130071715Y-103893905D01*
X130024096Y-103989143D01*
X129976477Y-104036762D01*
X129881239Y-104084381D01*
X129643143Y-104084381D01*
X129547905Y-104036762D01*
X129500286Y-103989143D01*
X128547905Y-106624381D02*
X128547905Y-105624381D01*
X128928858Y-105624381D01*
X129024096Y-105672000D01*
X129071715Y-105719619D01*
X129119334Y-105814857D01*
X129119334Y-105957714D01*
X129071715Y-106052952D01*
X129024096Y-106100571D01*
X128928858Y-106148190D01*
X128547905Y-106148190D01*
X129976477Y-105957714D02*
X129976477Y-106624381D01*
X129738381Y-105576762D02*
X129500286Y-106291048D01*
X130119334Y-106291048D01*
X128293905Y-109164381D02*
X128293905Y-108164381D01*
X128674858Y-108164381D01*
X128770096Y-108212000D01*
X128817715Y-108259619D01*
X128865334Y-108354857D01*
X128865334Y-108497714D01*
X128817715Y-108592952D01*
X128770096Y-108640571D01*
X128674858Y-108688190D01*
X128293905Y-108688190D01*
X129198667Y-108164381D02*
X129817715Y-108164381D01*
X129484381Y-108545333D01*
X129627239Y-108545333D01*
X129722477Y-108592952D01*
X129770096Y-108640571D01*
X129817715Y-108735810D01*
X129817715Y-108973905D01*
X129770096Y-109069143D01*
X129722477Y-109116762D01*
X129627239Y-109164381D01*
X129341524Y-109164381D01*
X129246286Y-109116762D01*
X129198667Y-109069143D01*
X128293905Y-111704381D02*
X128293905Y-110704381D01*
X128674858Y-110704381D01*
X128770096Y-110752000D01*
X128817715Y-110799619D01*
X128865334Y-110894857D01*
X128865334Y-111037714D01*
X128817715Y-111132952D01*
X128770096Y-111180571D01*
X128674858Y-111228190D01*
X128293905Y-111228190D01*
X129246286Y-110799619D02*
X129293905Y-110752000D01*
X129389143Y-110704381D01*
X129627239Y-110704381D01*
X129722477Y-110752000D01*
X129770096Y-110799619D01*
X129817715Y-110894857D01*
X129817715Y-110990095D01*
X129770096Y-111132952D01*
X129198667Y-111704381D01*
X129817715Y-111704381D01*
X128293905Y-114498381D02*
X128293905Y-113498381D01*
X128674858Y-113498381D01*
X128770096Y-113546000D01*
X128817715Y-113593619D01*
X128865334Y-113688857D01*
X128865334Y-113831714D01*
X128817715Y-113926952D01*
X128770096Y-113974571D01*
X128674858Y-114022190D01*
X128293905Y-114022190D01*
X129817715Y-114498381D02*
X129246286Y-114498381D01*
X129532000Y-114498381D02*
X129532000Y-113498381D01*
X129436762Y-113641238D01*
X129341524Y-113736476D01*
X129246286Y-113784095D01*
X128293905Y-116784381D02*
X128293905Y-115784381D01*
X128674858Y-115784381D01*
X128770096Y-115832000D01*
X128817715Y-115879619D01*
X128865334Y-115974857D01*
X128865334Y-116117714D01*
X128817715Y-116212952D01*
X128770096Y-116260571D01*
X128674858Y-116308190D01*
X128293905Y-116308190D01*
X129484381Y-115784381D02*
X129579620Y-115784381D01*
X129674858Y-115832000D01*
X129722477Y-115879619D01*
X129770096Y-115974857D01*
X129817715Y-116165333D01*
X129817715Y-116403429D01*
X129770096Y-116593905D01*
X129722477Y-116689143D01*
X129674858Y-116736762D01*
X129579620Y-116784381D01*
X129484381Y-116784381D01*
X129389143Y-116736762D01*
X129341524Y-116689143D01*
X129293905Y-116593905D01*
X129246286Y-116403429D01*
X129246286Y-116165333D01*
X129293905Y-115974857D01*
X129341524Y-115879619D01*
X129389143Y-115832000D01*
X129484381Y-115784381D01*
X118070381Y-116776476D02*
X118070381Y-117252667D01*
X118546571Y-117300286D01*
X118498952Y-117252667D01*
X118451333Y-117157429D01*
X118451333Y-116919333D01*
X118498952Y-116824095D01*
X118546571Y-116776476D01*
X118641810Y-116728857D01*
X118879905Y-116728857D01*
X118975143Y-116776476D01*
X119022762Y-116824095D01*
X119070381Y-116919333D01*
X119070381Y-117157429D01*
X119022762Y-117252667D01*
X118975143Y-117300286D01*
X118070381Y-116443143D02*
X119070381Y-116109810D01*
X118070381Y-115776476D01*
X120658000Y-116585904D02*
X120610381Y-116681142D01*
X120610381Y-116823999D01*
X120658000Y-116966857D01*
X120753238Y-117062095D01*
X120848476Y-117109714D01*
X121038952Y-117157333D01*
X121181810Y-117157333D01*
X121372286Y-117109714D01*
X121467524Y-117062095D01*
X121562762Y-116966857D01*
X121610381Y-116823999D01*
X121610381Y-116728761D01*
X121562762Y-116585904D01*
X121515143Y-116538285D01*
X121181810Y-116538285D01*
X121181810Y-116728761D01*
X121610381Y-116109714D02*
X120610381Y-116109714D01*
X121610381Y-115538285D01*
X120610381Y-115538285D01*
X121610381Y-115062095D02*
X120610381Y-115062095D01*
X120610381Y-114824000D01*
X120658000Y-114681142D01*
X120753238Y-114585904D01*
X120848476Y-114538285D01*
X121038952Y-114490666D01*
X121181810Y-114490666D01*
X121372286Y-114538285D01*
X121467524Y-114585904D01*
X121562762Y-114681142D01*
X121610381Y-114824000D01*
X121610381Y-115062095D01*
X123150381Y-117427238D02*
X124150381Y-117093905D01*
X123150381Y-116760571D01*
X124150381Y-116427238D02*
X123150381Y-116427238D01*
X124150381Y-115951048D02*
X123150381Y-115951048D01*
X124150381Y-115379619D01*
X123150381Y-115379619D01*
M02*
