G04 #@! TF.FileFunction,Copper,L2,Bot,Signal*
%FSLAX46Y46*%
G04 Gerber Fmt 4.6, Leading zero omitted, Abs format (unit mm)*
G04 Created by KiCad (PCBNEW 4.0.4-stable) date 04/25/17 22:02:41*
%MOMM*%
%LPD*%
G01*
G04 APERTURE LIST*
%ADD10C,0.100000*%
%ADD11C,0.300000*%
%ADD12C,0.150000*%
%ADD13R,1.350000X1.350000*%
%ADD14O,1.350000X1.350000*%
%ADD15C,3.500120*%
%ADD16C,1.600000*%
%ADD17R,2.400000X2.400000*%
%ADD18C,2.400000*%
%ADD19R,1.800000X1.800000*%
%ADD20C,1.800000*%
%ADD21R,2.800000X2.800000*%
%ADD22O,2.800000X2.800000*%
%ADD23C,2.463800*%
%ADD24O,1.800000X1.800000*%
%ADD25O,1.600000X1.600000*%
%ADD26C,1.524000*%
%ADD27C,1.900000*%
%ADD28C,1.879600*%
%ADD29C,4.000500*%
%ADD30R,1.700000X1.700000*%
%ADD31O,1.700000X1.700000*%
%ADD32C,1.520000*%
%ADD33R,1.520000X1.520000*%
%ADD34C,1.016000*%
%ADD35C,0.635000*%
%ADD36C,0.250000*%
%ADD37C,0.762000*%
%ADD38C,0.508000*%
G04 APERTURE END LIST*
D10*
D11*
X165183142Y-126384857D02*
X164968856Y-126456286D01*
X164897428Y-126527714D01*
X164825999Y-126670571D01*
X164825999Y-126884857D01*
X164897428Y-127027714D01*
X164968856Y-127099143D01*
X165111714Y-127170571D01*
X165683142Y-127170571D01*
X165683142Y-125670571D01*
X165183142Y-125670571D01*
X165040285Y-125742000D01*
X164968856Y-125813429D01*
X164897428Y-125956286D01*
X164897428Y-126099143D01*
X164968856Y-126242000D01*
X165040285Y-126313429D01*
X165183142Y-126384857D01*
X165683142Y-126384857D01*
X164183142Y-127170571D02*
X164183142Y-125670571D01*
X163540285Y-126742000D02*
X162825999Y-126742000D01*
X163683142Y-127170571D02*
X163183142Y-125670571D01*
X162683142Y-127170571D01*
X162254571Y-127099143D02*
X162040285Y-127170571D01*
X161683142Y-127170571D01*
X161540285Y-127099143D01*
X161468856Y-127027714D01*
X161397428Y-126884857D01*
X161397428Y-126742000D01*
X161468856Y-126599143D01*
X161540285Y-126527714D01*
X161683142Y-126456286D01*
X161968856Y-126384857D01*
X162111714Y-126313429D01*
X162183142Y-126242000D01*
X162254571Y-126099143D01*
X162254571Y-125956286D01*
X162183142Y-125813429D01*
X162111714Y-125742000D01*
X161968856Y-125670571D01*
X161611714Y-125670571D01*
X161397428Y-125742000D01*
X147700857Y-72656000D02*
X147843714Y-72584571D01*
X148058000Y-72584571D01*
X148272285Y-72656000D01*
X148415143Y-72798857D01*
X148486571Y-72941714D01*
X148558000Y-73227429D01*
X148558000Y-73441714D01*
X148486571Y-73727429D01*
X148415143Y-73870286D01*
X148272285Y-74013143D01*
X148058000Y-74084571D01*
X147915143Y-74084571D01*
X147700857Y-74013143D01*
X147629428Y-73941714D01*
X147629428Y-73441714D01*
X147915143Y-73441714D01*
X146986571Y-74084571D02*
X146986571Y-72584571D01*
X146129428Y-74084571D01*
X146129428Y-72584571D01*
X145415142Y-74084571D02*
X145415142Y-72584571D01*
X145057999Y-72584571D01*
X144843714Y-72656000D01*
X144700856Y-72798857D01*
X144629428Y-72941714D01*
X144557999Y-73227429D01*
X144557999Y-73441714D01*
X144629428Y-73727429D01*
X144700856Y-73870286D01*
X144843714Y-74013143D01*
X145057999Y-74084571D01*
X145415142Y-74084571D01*
X165516571Y-69258571D02*
X165516571Y-67758571D01*
X164659428Y-69258571D01*
X164659428Y-67758571D01*
X163087999Y-69115714D02*
X163159428Y-69187143D01*
X163373714Y-69258571D01*
X163516571Y-69258571D01*
X163730856Y-69187143D01*
X163873714Y-69044286D01*
X163945142Y-68901429D01*
X164016571Y-68615714D01*
X164016571Y-68401429D01*
X163945142Y-68115714D01*
X163873714Y-67972857D01*
X163730856Y-67830000D01*
X163516571Y-67758571D01*
X163373714Y-67758571D01*
X163159428Y-67830000D01*
X163087999Y-67901429D01*
X174696286Y-98722571D02*
X174696286Y-97222571D01*
X173839143Y-98722571D01*
X173839143Y-97222571D01*
X172839143Y-97222571D02*
X172553429Y-97222571D01*
X172410571Y-97294000D01*
X172267714Y-97436857D01*
X172196286Y-97722571D01*
X172196286Y-98222571D01*
X172267714Y-98508286D01*
X172410571Y-98651143D01*
X172553429Y-98722571D01*
X172839143Y-98722571D01*
X172982000Y-98651143D01*
X173124857Y-98508286D01*
X173196286Y-98222571D01*
X173196286Y-97722571D01*
X173124857Y-97436857D01*
X172982000Y-97294000D01*
X172839143Y-97222571D01*
X179740571Y-98579714D02*
X179812000Y-98651143D01*
X180026286Y-98722571D01*
X180169143Y-98722571D01*
X180383428Y-98651143D01*
X180526286Y-98508286D01*
X180597714Y-98365429D01*
X180669143Y-98079714D01*
X180669143Y-97865429D01*
X180597714Y-97579714D01*
X180526286Y-97436857D01*
X180383428Y-97294000D01*
X180169143Y-97222571D01*
X180026286Y-97222571D01*
X179812000Y-97294000D01*
X179740571Y-97365429D01*
X178812000Y-97222571D02*
X178526286Y-97222571D01*
X178383428Y-97294000D01*
X178240571Y-97436857D01*
X178169143Y-97722571D01*
X178169143Y-98222571D01*
X178240571Y-98508286D01*
X178383428Y-98651143D01*
X178526286Y-98722571D01*
X178812000Y-98722571D01*
X178954857Y-98651143D01*
X179097714Y-98508286D01*
X179169143Y-98222571D01*
X179169143Y-97722571D01*
X179097714Y-97436857D01*
X178954857Y-97294000D01*
X178812000Y-97222571D01*
X177526285Y-98722571D02*
X177526285Y-97222571D01*
X177026285Y-98294000D01*
X176526285Y-97222571D01*
X176526285Y-98722571D01*
X149454856Y-68433143D02*
X148311999Y-68433143D01*
X148883428Y-69004571D02*
X148883428Y-67861714D01*
X146811999Y-69004571D02*
X147669142Y-69004571D01*
X147240570Y-69004571D02*
X147240570Y-67504571D01*
X147383427Y-67718857D01*
X147526285Y-67861714D01*
X147669142Y-67933143D01*
X146240571Y-67647429D02*
X146169142Y-67576000D01*
X146026285Y-67504571D01*
X145669142Y-67504571D01*
X145526285Y-67576000D01*
X145454856Y-67647429D01*
X145383428Y-67790286D01*
X145383428Y-67933143D01*
X145454856Y-68147429D01*
X146311999Y-69004571D01*
X145383428Y-69004571D01*
X144954857Y-67504571D02*
X144454857Y-69004571D01*
X143954857Y-67504571D01*
D12*
X183896000Y-128016000D02*
X183896000Y-64770000D01*
X101600000Y-128016000D02*
X101600000Y-64770000D01*
X183896000Y-128016000D02*
X101600000Y-128016000D01*
X101600000Y-64770000D02*
X183896000Y-64770000D01*
D13*
X137414000Y-114300000D03*
D14*
X137414000Y-116300000D03*
D15*
X148717000Y-112141000D03*
X158877000Y-112141000D03*
D16*
X125857000Y-122936000D03*
X120857000Y-122936000D03*
D17*
X122682000Y-92710000D03*
D18*
X127682000Y-92710000D03*
D16*
X134874000Y-68072000D03*
X134874000Y-73072000D03*
D17*
X119888000Y-74422000D03*
D18*
X124888000Y-74422000D03*
D19*
X155702000Y-105156000D03*
D20*
X153162000Y-105156000D03*
D21*
X140462000Y-79756000D03*
D22*
X140462000Y-92456000D03*
D15*
X140462000Y-73406000D03*
X140462000Y-68326000D03*
X173482000Y-93472000D03*
X178562000Y-93472000D03*
D23*
X175082200Y-86233000D03*
X178485800Y-86233000D03*
X178485800Y-72771000D03*
X175082200Y-72771000D03*
D19*
X172212000Y-117856000D03*
D24*
X174752000Y-117856000D03*
X177292000Y-117856000D03*
D16*
X142367000Y-111506000D03*
D25*
X142367000Y-124206000D03*
D16*
X149352000Y-105156000D03*
D25*
X136652000Y-105156000D03*
D16*
X157226000Y-100838000D03*
D25*
X144526000Y-100838000D03*
D26*
X156464000Y-120396000D03*
X153924000Y-122936000D03*
X151384000Y-120396000D03*
D27*
X162410000Y-92360000D03*
X148210000Y-86360000D03*
X162410000Y-80360000D03*
X150210000Y-80360000D03*
X150210000Y-92360000D03*
D19*
X105664000Y-96774000D03*
D24*
X108204000Y-96774000D03*
X110744000Y-96774000D03*
D28*
X118618000Y-118872000D03*
X121158000Y-118872000D03*
X123698000Y-118872000D03*
X131572000Y-116332000D03*
X131572000Y-113792000D03*
X131572000Y-111252000D03*
X131572000Y-108712000D03*
X131572000Y-106172000D03*
X131572000Y-103632000D03*
D29*
X164592000Y-72136000D03*
D30*
X110744000Y-100838000D03*
D31*
X108204000Y-100838000D03*
X105664000Y-100838000D03*
D32*
X165862000Y-115316000D03*
X165862000Y-117856000D03*
D33*
X165862000Y-112776000D03*
D34*
X110744000Y-100838000D02*
X110744000Y-96774000D01*
X122682000Y-92710000D02*
X114808000Y-92710000D01*
X114808000Y-92710000D02*
X110744000Y-96774000D01*
X123698000Y-118872000D02*
X123698000Y-93726000D01*
X123698000Y-93726000D02*
X122682000Y-92710000D01*
X125857000Y-122936000D02*
X125857000Y-119507000D01*
X125222000Y-118872000D02*
X123698000Y-118872000D01*
X125857000Y-119507000D02*
X125222000Y-118872000D01*
D35*
X123698000Y-93726000D02*
X122682000Y-92710000D01*
X121158000Y-122635000D02*
X120857000Y-122936000D01*
D36*
X121158000Y-122635000D02*
X120857000Y-122936000D01*
X158877000Y-112141000D02*
X158877000Y-110871000D01*
D37*
X165862000Y-112776000D02*
X165862000Y-104394000D01*
X136652000Y-83566000D02*
X140462000Y-79756000D01*
X136652000Y-93980000D02*
X136652000Y-83566000D01*
X138684000Y-96012000D02*
X136652000Y-93980000D01*
X157480000Y-96012000D02*
X138684000Y-96012000D01*
X165862000Y-104394000D02*
X157480000Y-96012000D01*
D34*
X105664000Y-96774000D02*
X105664000Y-100838000D01*
X140462000Y-79756000D02*
X125222000Y-79756000D01*
X125222000Y-79756000D02*
X119888000Y-74422000D01*
X105664000Y-96774000D02*
X105664000Y-88646000D01*
X114808000Y-79502000D02*
X119888000Y-74422000D01*
X105664000Y-88646000D02*
X114808000Y-79502000D01*
X134874000Y-68072000D02*
X126238000Y-68072000D01*
X126238000Y-68072000D02*
X119888000Y-74422000D01*
X140462000Y-68326000D02*
X135128000Y-68326000D01*
X135128000Y-68326000D02*
X134874000Y-68072000D01*
D35*
X140208000Y-68072000D02*
X140462000Y-68326000D01*
D34*
X140462000Y-79756000D02*
X149606000Y-79756000D01*
X149606000Y-79756000D02*
X150210000Y-80360000D01*
D36*
X141066000Y-80360000D02*
X140462000Y-79756000D01*
D37*
X149352000Y-105156000D02*
X153162000Y-105156000D01*
D34*
X150210000Y-92360000D02*
X158400000Y-92360000D01*
X174752000Y-108712000D02*
X174752000Y-117856000D01*
X158400000Y-92360000D02*
X174752000Y-108712000D01*
X150210000Y-92360000D02*
X140558000Y-92360000D01*
X140558000Y-92360000D02*
X140462000Y-92456000D01*
D36*
X150114000Y-92456000D02*
X150210000Y-92360000D01*
D37*
X131572000Y-113792000D02*
X136906000Y-113792000D01*
X136906000Y-113792000D02*
X137414000Y-114300000D01*
X131826000Y-114046000D02*
X131572000Y-113792000D01*
X131572000Y-116332000D02*
X137382000Y-116332000D01*
X137382000Y-116332000D02*
X137414000Y-116300000D01*
D38*
X137001000Y-116332000D02*
X137287000Y-116046000D01*
D36*
X137001000Y-116332000D02*
X137287000Y-116046000D01*
D34*
X162410000Y-92360000D02*
X172370000Y-92360000D01*
X172370000Y-92360000D02*
X173482000Y-93472000D01*
X178485800Y-86233000D02*
X178485800Y-93395800D01*
X178485800Y-93395800D02*
X178562000Y-93472000D01*
X175082200Y-86233000D02*
X178485800Y-86233000D01*
D36*
X178485800Y-86233000D02*
X178562000Y-86309200D01*
D34*
X162410000Y-80360000D02*
X162410000Y-74318000D01*
X162410000Y-74318000D02*
X164592000Y-72136000D01*
X175082200Y-72771000D02*
X178485800Y-72771000D01*
X148210000Y-86360000D02*
X161493200Y-86360000D01*
X161493200Y-86360000D02*
X175082200Y-72771000D01*
D37*
X172212000Y-117856000D02*
X165862000Y-117856000D01*
X142367000Y-111506000D02*
X148082000Y-111506000D01*
X148082000Y-111506000D02*
X148717000Y-112141000D01*
X131572000Y-111252000D02*
X142113000Y-111252000D01*
X142113000Y-111252000D02*
X142367000Y-111506000D01*
D38*
X148082000Y-111506000D02*
X148717000Y-112141000D01*
X142113000Y-111252000D02*
X142367000Y-111506000D01*
D35*
X148082000Y-111506000D02*
X148717000Y-112141000D01*
X142113000Y-111252000D02*
X142367000Y-111506000D01*
D36*
X148082000Y-111506000D02*
X148717000Y-112141000D01*
X142113000Y-111252000D02*
X142367000Y-111506000D01*
D37*
X118618000Y-118872000D02*
X118364000Y-118872000D01*
X118364000Y-118872000D02*
X116332000Y-120904000D01*
X116332000Y-120904000D02*
X116332000Y-123190000D01*
X116332000Y-123190000D02*
X119888000Y-126746000D01*
X119888000Y-126746000D02*
X139827000Y-126746000D01*
X139827000Y-126746000D02*
X142367000Y-124206000D01*
X151384000Y-120396000D02*
X146177000Y-120396000D01*
X146177000Y-120396000D02*
X142367000Y-124206000D01*
X131572000Y-106172000D02*
X135636000Y-106172000D01*
X135636000Y-106172000D02*
X136652000Y-105156000D01*
X144526000Y-100838000D02*
X134366000Y-100838000D01*
X134366000Y-100838000D02*
X131572000Y-103632000D01*
D38*
X131572000Y-103632000D02*
X132080000Y-103632000D01*
D37*
X153924000Y-122936000D02*
X153924000Y-112014000D01*
X150622000Y-108712000D02*
X131572000Y-108712000D01*
X153924000Y-112014000D02*
X150622000Y-108712000D01*
X157226000Y-100838000D02*
X157480000Y-100838000D01*
X157480000Y-100838000D02*
X163068000Y-106426000D01*
X163068000Y-106426000D02*
X163068000Y-114300000D01*
X163068000Y-114300000D02*
X164084000Y-115316000D01*
X164084000Y-115316000D02*
X165862000Y-115316000D01*
D38*
G36*
X133756496Y-66294000D02*
X126238000Y-66294000D01*
X125557589Y-66429342D01*
X124980764Y-66814764D01*
X119868408Y-71927120D01*
X118688000Y-71927120D01*
X118217366Y-72015676D01*
X117785118Y-72293820D01*
X117495138Y-72718219D01*
X117393120Y-73222000D01*
X117393120Y-74402408D01*
X111184250Y-80611278D01*
X111283165Y-80114000D01*
X111053281Y-78958296D01*
X110398627Y-77978538D01*
X109418869Y-77323884D01*
X108263165Y-77094000D01*
X108144835Y-77094000D01*
X106989131Y-77323884D01*
X106009373Y-77978538D01*
X105354719Y-78958296D01*
X105124835Y-80114000D01*
X105354719Y-81269704D01*
X106009373Y-82249462D01*
X106989131Y-82904116D01*
X108144835Y-83134000D01*
X108263165Y-83134000D01*
X108760443Y-83035085D01*
X104406764Y-87388764D01*
X104021342Y-87965589D01*
X103886000Y-88646000D01*
X103886000Y-94929809D01*
X103861118Y-94945820D01*
X103571138Y-95370219D01*
X103469120Y-95874000D01*
X103469120Y-97674000D01*
X103557676Y-98144634D01*
X103835820Y-98576882D01*
X103886000Y-98611169D01*
X103886000Y-99714854D01*
X103705375Y-99985178D01*
X103544000Y-100796467D01*
X103544000Y-100879533D01*
X103705375Y-101690822D01*
X104164934Y-102378599D01*
X104852711Y-102838158D01*
X105664000Y-102999533D01*
X106475289Y-102838158D01*
X107163066Y-102378599D01*
X107622625Y-101690822D01*
X107784000Y-100879533D01*
X107784000Y-100796467D01*
X107622625Y-99985178D01*
X107442000Y-99714854D01*
X107442000Y-98618191D01*
X107466882Y-98602180D01*
X107756862Y-98177781D01*
X107858880Y-97674000D01*
X107858880Y-96774000D01*
X108531487Y-96774000D01*
X108696668Y-97604423D01*
X108966000Y-98007507D01*
X108966000Y-99096581D01*
X108701138Y-99484219D01*
X108599120Y-99988000D01*
X108599120Y-101688000D01*
X108687676Y-102158634D01*
X108965820Y-102590882D01*
X109390219Y-102880862D01*
X109894000Y-102982880D01*
X111594000Y-102982880D01*
X112064634Y-102894324D01*
X112496882Y-102616180D01*
X112786862Y-102191781D01*
X112888880Y-101688000D01*
X112888880Y-99988000D01*
X112800324Y-99517366D01*
X112522180Y-99085118D01*
X112522000Y-99084995D01*
X112522000Y-98007507D01*
X112791332Y-97604423D01*
X112881536Y-97150936D01*
X115544472Y-94488000D01*
X120344764Y-94488000D01*
X120553820Y-94812882D01*
X120978219Y-95102862D01*
X121482000Y-95204880D01*
X121920000Y-95204880D01*
X121920000Y-117524493D01*
X121825715Y-117618614D01*
X121488584Y-118430515D01*
X121487817Y-119309628D01*
X121823530Y-120122116D01*
X122444614Y-120744285D01*
X123256515Y-121081416D01*
X124079000Y-121082134D01*
X124079000Y-121820097D01*
X123787360Y-122522445D01*
X123786641Y-123345942D01*
X124101116Y-124107029D01*
X124682908Y-124689838D01*
X125443445Y-125005640D01*
X126266942Y-125006359D01*
X127028029Y-124691884D01*
X127610838Y-124110092D01*
X127926640Y-123349555D01*
X127927359Y-122526058D01*
X127635000Y-121818496D01*
X127635000Y-119507000D01*
X127499658Y-118826589D01*
X127114236Y-118249764D01*
X126479236Y-117614764D01*
X125902411Y-117229342D01*
X125476000Y-117144524D01*
X125476000Y-93726000D01*
X125340658Y-93045589D01*
X125176880Y-92800478D01*
X125176880Y-91510000D01*
X125088324Y-91039366D01*
X124810180Y-90607118D01*
X124385781Y-90317138D01*
X123882000Y-90215120D01*
X121482000Y-90215120D01*
X121011366Y-90303676D01*
X120579118Y-90581820D01*
X120339850Y-90932000D01*
X114808000Y-90932000D01*
X114127589Y-91067342D01*
X113550764Y-91452764D01*
X110324551Y-94678977D01*
X109871064Y-94769181D01*
X109167065Y-95239578D01*
X108696668Y-95943577D01*
X108531487Y-96774000D01*
X107858880Y-96774000D01*
X107858880Y-95874000D01*
X107770324Y-95403366D01*
X107492180Y-94971118D01*
X107442000Y-94936831D01*
X107442000Y-89382472D01*
X119888000Y-76936472D01*
X123964764Y-81013236D01*
X124541589Y-81398658D01*
X125222000Y-81534000D01*
X136349134Y-81534000D01*
X135484567Y-82398567D01*
X135126675Y-82934189D01*
X135126675Y-82934190D01*
X135001000Y-83566000D01*
X135001000Y-93980000D01*
X135126675Y-94611811D01*
X135484567Y-95147433D01*
X137516567Y-97179433D01*
X138052190Y-97537325D01*
X138684000Y-97663000D01*
X156796134Y-97663000D01*
X158087494Y-98954360D01*
X157639555Y-98768360D01*
X156816058Y-98767641D01*
X156054971Y-99082116D01*
X155472162Y-99663908D01*
X155156360Y-100424445D01*
X155155641Y-101247942D01*
X155470116Y-102009029D01*
X156051908Y-102591838D01*
X156812445Y-102907640D01*
X157215125Y-102907992D01*
X161417000Y-107109867D01*
X161417000Y-114300000D01*
X161542675Y-114931811D01*
X161900567Y-115467433D01*
X162916567Y-116483433D01*
X163452189Y-116841325D01*
X164036977Y-116957647D01*
X163832353Y-117450437D01*
X163831648Y-118258020D01*
X164140046Y-119004400D01*
X164710596Y-119575947D01*
X165456437Y-119885647D01*
X166264020Y-119886352D01*
X167010400Y-119577954D01*
X167081478Y-119507000D01*
X170286087Y-119507000D01*
X170383820Y-119658882D01*
X170808219Y-119948862D01*
X171312000Y-120050880D01*
X173112000Y-120050880D01*
X173582634Y-119962324D01*
X173811026Y-119815358D01*
X173879064Y-119860819D01*
X174709487Y-120026000D01*
X174794513Y-120026000D01*
X175624936Y-119860819D01*
X176328935Y-119390422D01*
X176799332Y-118686423D01*
X176964513Y-117856000D01*
X176799332Y-117025577D01*
X176530000Y-116622493D01*
X176530000Y-108712000D01*
X176464243Y-108381416D01*
X176394658Y-108031588D01*
X176009236Y-107454764D01*
X163051466Y-94496994D01*
X163665886Y-94243121D01*
X163771191Y-94138000D01*
X170489476Y-94138000D01*
X170920225Y-95180491D01*
X171313048Y-95574000D01*
X170640571Y-95574000D01*
X170640571Y-100664000D01*
X171778656Y-100664000D01*
X171672835Y-101196000D01*
X171902719Y-102351704D01*
X172557373Y-103331462D01*
X173537131Y-103986116D01*
X174692835Y-104216000D01*
X174811165Y-104216000D01*
X175966869Y-103986116D01*
X176946627Y-103331462D01*
X177601281Y-102351704D01*
X177831165Y-101196000D01*
X177725344Y-100664000D01*
X182224858Y-100664000D01*
X182224858Y-95574000D01*
X180731069Y-95574000D01*
X181120789Y-95184960D01*
X181581534Y-94075362D01*
X181582583Y-92873909D01*
X181123775Y-91763509D01*
X180274960Y-90913211D01*
X180263800Y-90908577D01*
X180263800Y-87993238D01*
X180605571Y-87652063D01*
X180987265Y-86732842D01*
X180988133Y-85737525D01*
X180608044Y-84817639D01*
X179904863Y-84113229D01*
X178985642Y-83731535D01*
X177990325Y-83730667D01*
X177070439Y-84110756D01*
X176784118Y-84396578D01*
X176501263Y-84113229D01*
X175582042Y-83731535D01*
X174586725Y-83730667D01*
X173666839Y-84110756D01*
X172962429Y-84813937D01*
X172580735Y-85733158D01*
X172579867Y-86728475D01*
X172959956Y-87648361D01*
X173663137Y-88352771D01*
X174582358Y-88734465D01*
X175577675Y-88735333D01*
X176497561Y-88355244D01*
X176707800Y-88145372D01*
X176707800Y-91055680D01*
X176021294Y-91740989D01*
X175194960Y-90913211D01*
X174085362Y-90452466D01*
X172883909Y-90451417D01*
X172503572Y-90608569D01*
X172370000Y-90582000D01*
X163771918Y-90582000D01*
X163669171Y-90479073D01*
X162853523Y-90140387D01*
X161970352Y-90139616D01*
X161154114Y-90476879D01*
X160529073Y-91100829D01*
X160272705Y-91718233D01*
X159657236Y-91102764D01*
X159080411Y-90717342D01*
X158400000Y-90582000D01*
X151571918Y-90582000D01*
X151469171Y-90479073D01*
X150653523Y-90140387D01*
X149770352Y-90139616D01*
X148954114Y-90476879D01*
X148848809Y-90582000D01*
X142394264Y-90582000D01*
X142349975Y-90515717D01*
X141483765Y-89936934D01*
X140462000Y-89733692D01*
X139440235Y-89936934D01*
X138574025Y-90515717D01*
X138303000Y-90921335D01*
X138303000Y-84249866D01*
X140101987Y-82450880D01*
X141862000Y-82450880D01*
X142332634Y-82362324D01*
X142764882Y-82084180D01*
X143054862Y-81659781D01*
X143080333Y-81534000D01*
X148293044Y-81534000D01*
X148326879Y-81615886D01*
X148950829Y-82240927D01*
X149766477Y-82579613D01*
X150649648Y-82580384D01*
X151465886Y-82243121D01*
X152090927Y-81619171D01*
X152429613Y-80803523D01*
X152430384Y-79920352D01*
X152093121Y-79104114D01*
X151469171Y-78479073D01*
X150653523Y-78140387D01*
X150326459Y-78140101D01*
X150286411Y-78113342D01*
X149606000Y-77978000D01*
X143085754Y-77978000D01*
X143068324Y-77885366D01*
X142790180Y-77453118D01*
X142365781Y-77163138D01*
X141862000Y-77061120D01*
X139062000Y-77061120D01*
X138591366Y-77149676D01*
X138159118Y-77427820D01*
X137869138Y-77852219D01*
X137843667Y-77978000D01*
X125958472Y-77978000D01*
X122402472Y-74422000D01*
X126974472Y-69850000D01*
X133758097Y-69850000D01*
X134460445Y-70141640D01*
X135283942Y-70142359D01*
X135376778Y-70104000D01*
X137969613Y-70104000D01*
X138749040Y-70884789D01*
X139858638Y-71345534D01*
X141060091Y-71346583D01*
X142170491Y-70887775D01*
X142542001Y-70516913D01*
X142542001Y-70946000D01*
X143002286Y-70946000D01*
X143002286Y-76026000D01*
X150113715Y-76026000D01*
X150113715Y-70946000D01*
X151082000Y-70946000D01*
X151082000Y-66115000D01*
X153851505Y-66115000D01*
X153269813Y-66695678D01*
X152694656Y-68080811D01*
X152693347Y-69580609D01*
X153266086Y-70966744D01*
X154325678Y-72028187D01*
X155710811Y-72603344D01*
X157210609Y-72604653D01*
X158596744Y-72031914D01*
X159658187Y-70972322D01*
X160233344Y-69587189D01*
X160234653Y-68087391D01*
X159661914Y-66701256D01*
X159076680Y-66115000D01*
X161532286Y-66115000D01*
X161532286Y-70976997D01*
X161322319Y-71482653D01*
X161321184Y-72783639D01*
X161352967Y-72860561D01*
X161152764Y-73060764D01*
X160767342Y-73637589D01*
X160632000Y-74318000D01*
X160632000Y-78998082D01*
X160529073Y-79100829D01*
X160190387Y-79916477D01*
X160189616Y-80799648D01*
X160526879Y-81615886D01*
X161150829Y-82240927D01*
X161966477Y-82579613D01*
X162758424Y-82580304D01*
X160756728Y-84582000D01*
X149571918Y-84582000D01*
X149469171Y-84479073D01*
X148653523Y-84140387D01*
X147770352Y-84139616D01*
X146954114Y-84476879D01*
X146329073Y-85100829D01*
X145990387Y-85916477D01*
X145989616Y-86799648D01*
X146326879Y-87615886D01*
X146950829Y-88240927D01*
X147766477Y-88579613D01*
X148649648Y-88580384D01*
X149465886Y-88243121D01*
X149571191Y-88138000D01*
X161493200Y-88138000D01*
X162173611Y-88002658D01*
X162750436Y-87617236D01*
X175094760Y-75272912D01*
X175577675Y-75273333D01*
X176497561Y-74893244D01*
X176783882Y-74607422D01*
X177066737Y-74890771D01*
X177985958Y-75272465D01*
X178981275Y-75273333D01*
X179901161Y-74893244D01*
X180605571Y-74190063D01*
X180987265Y-73270842D01*
X180988133Y-72275525D01*
X180608044Y-71355639D01*
X179904863Y-70651229D01*
X178985642Y-70269535D01*
X177990325Y-70268667D01*
X177070439Y-70648756D01*
X176784118Y-70934578D01*
X176501263Y-70651229D01*
X175582042Y-70269535D01*
X174586725Y-70268667D01*
X173666839Y-70648756D01*
X172962429Y-71351937D01*
X172580735Y-72271158D01*
X172580310Y-72758418D01*
X164629695Y-80709033D01*
X164630384Y-79920352D01*
X164293121Y-79104114D01*
X164188000Y-78998809D01*
X164188000Y-75405899D01*
X165239639Y-75406816D01*
X166442028Y-74910000D01*
X167362766Y-73990866D01*
X167861681Y-72789347D01*
X167862816Y-71488361D01*
X167366000Y-70285972D01*
X167143715Y-70063299D01*
X167143715Y-66115000D01*
X182551000Y-66115000D01*
X182551000Y-121339505D01*
X181970322Y-120757813D01*
X180585189Y-120182656D01*
X179085391Y-120181347D01*
X177699256Y-120754086D01*
X176637813Y-121813678D01*
X176062656Y-123198811D01*
X176061347Y-124698609D01*
X176634086Y-126084744D01*
X177219320Y-126671000D01*
X167310286Y-126671000D01*
X167310286Y-124022000D01*
X159841715Y-124022000D01*
X159841715Y-126671000D01*
X142236866Y-126671000D01*
X142647010Y-126260857D01*
X143159155Y-126158985D01*
X143830711Y-125710265D01*
X144279431Y-125038709D01*
X144381303Y-124526563D01*
X146860867Y-122047000D01*
X150160944Y-122047000D01*
X150231462Y-122117641D01*
X150978037Y-122427646D01*
X151786416Y-122428352D01*
X151965262Y-122354454D01*
X151892354Y-122530037D01*
X151891648Y-123338416D01*
X152200350Y-124085532D01*
X152771462Y-124657641D01*
X153518037Y-124967646D01*
X154326416Y-124968352D01*
X155073532Y-124659650D01*
X155645641Y-124088538D01*
X155955646Y-123341963D01*
X155956352Y-122533584D01*
X155647650Y-121786468D01*
X155575000Y-121713691D01*
X155575000Y-112014000D01*
X155449325Y-111382190D01*
X155449325Y-111382189D01*
X155091433Y-110846567D01*
X151789433Y-107544567D01*
X151253811Y-107186675D01*
X150622000Y-107061000D01*
X150162141Y-107061000D01*
X150523029Y-106911884D01*
X150628096Y-106807000D01*
X151743952Y-106807000D01*
X151931189Y-106994564D01*
X152728467Y-107325623D01*
X153591746Y-107326376D01*
X154389601Y-106996709D01*
X155000564Y-106386811D01*
X155331623Y-105589533D01*
X155332376Y-104726254D01*
X155002709Y-103928399D01*
X154392811Y-103317436D01*
X153595533Y-102986377D01*
X152732254Y-102985624D01*
X151934399Y-103315291D01*
X151744359Y-103505000D01*
X150628751Y-103505000D01*
X150526092Y-103402162D01*
X149765555Y-103086360D01*
X148942058Y-103085641D01*
X148180971Y-103400116D01*
X147598162Y-103981908D01*
X147282360Y-104742445D01*
X147281641Y-105565942D01*
X147596116Y-106327029D01*
X148177908Y-106909838D01*
X148541947Y-107061000D01*
X137495830Y-107061000D01*
X138156265Y-106619711D01*
X138604985Y-105948155D01*
X138762554Y-105156000D01*
X138604985Y-104363845D01*
X138156265Y-103692289D01*
X137484709Y-103243569D01*
X136692554Y-103086000D01*
X136611446Y-103086000D01*
X135819291Y-103243569D01*
X135147735Y-103692289D01*
X134699015Y-104363845D01*
X134667755Y-104521000D01*
X133595591Y-104521000D01*
X133781416Y-104073485D01*
X133781692Y-103757174D01*
X135049867Y-102489000D01*
X143302032Y-102489000D01*
X143693291Y-102750431D01*
X144485446Y-102908000D01*
X144566554Y-102908000D01*
X145358709Y-102750431D01*
X146030265Y-102301711D01*
X146478985Y-101630155D01*
X146636554Y-100838000D01*
X146478985Y-100045845D01*
X146030265Y-99374289D01*
X145358709Y-98925569D01*
X144566554Y-98768000D01*
X144485446Y-98768000D01*
X143693291Y-98925569D01*
X143302032Y-99187000D01*
X134366000Y-99187000D01*
X133734190Y-99312675D01*
X133198567Y-99670566D01*
X131447044Y-101422090D01*
X131134372Y-101421817D01*
X130321884Y-101757530D01*
X129699715Y-102378614D01*
X129362584Y-103190515D01*
X129361817Y-104069628D01*
X129697530Y-104882116D01*
X129716870Y-104901489D01*
X129699715Y-104918614D01*
X129362584Y-105730515D01*
X129361817Y-106609628D01*
X129697530Y-107422116D01*
X129716870Y-107441489D01*
X129699715Y-107458614D01*
X129362584Y-108270515D01*
X129361817Y-109149628D01*
X129697530Y-109962116D01*
X129716870Y-109981489D01*
X129699715Y-109998614D01*
X129362584Y-110810515D01*
X129361817Y-111689628D01*
X129697530Y-112502116D01*
X129716870Y-112521489D01*
X129699715Y-112538614D01*
X129362584Y-113350515D01*
X129361817Y-114229628D01*
X129697530Y-115042116D01*
X129716870Y-115061489D01*
X129699715Y-115078614D01*
X129362584Y-115890515D01*
X129361817Y-116769628D01*
X129697530Y-117582116D01*
X130318614Y-118204285D01*
X131130515Y-118541416D01*
X132009628Y-118542183D01*
X132822116Y-118206470D01*
X133045976Y-117983000D01*
X136461044Y-117983000D01*
X136631576Y-118096946D01*
X137375895Y-118245000D01*
X137452105Y-118245000D01*
X138196424Y-118096946D01*
X138827428Y-117675323D01*
X139249051Y-117044319D01*
X139397105Y-116300000D01*
X139249051Y-115555681D01*
X139239295Y-115541080D01*
X139281862Y-115478781D01*
X139383880Y-114975000D01*
X139383880Y-113625000D01*
X139295324Y-113154366D01*
X139133574Y-112903000D01*
X140836693Y-112903000D01*
X141192908Y-113259838D01*
X141953445Y-113575640D01*
X142776942Y-113576359D01*
X143538029Y-113261884D01*
X143643096Y-113157000D01*
X145869094Y-113157000D01*
X146155225Y-113849491D01*
X147004040Y-114699789D01*
X148113638Y-115160534D01*
X149315091Y-115161583D01*
X150425491Y-114702775D01*
X151275789Y-113853960D01*
X151736534Y-112744362D01*
X151737043Y-112161909D01*
X152273000Y-112697866D01*
X152273000Y-118564928D01*
X151789963Y-118364354D01*
X150981584Y-118363648D01*
X150234468Y-118672350D01*
X150161691Y-118745000D01*
X146177000Y-118745000D01*
X145545190Y-118870675D01*
X145009567Y-119228566D01*
X142086991Y-122151143D01*
X141574845Y-122253015D01*
X140903289Y-122701735D01*
X140454569Y-123373291D01*
X140352697Y-123885436D01*
X139143134Y-125095000D01*
X120571867Y-125095000D01*
X117983000Y-122506134D01*
X117983000Y-121587866D01*
X118489177Y-121081689D01*
X119055628Y-121082183D01*
X119868116Y-120746470D01*
X120490285Y-120125386D01*
X120827416Y-119313485D01*
X120828183Y-118434372D01*
X120492470Y-117621884D01*
X119871386Y-116999715D01*
X119059485Y-116662584D01*
X118180372Y-116661817D01*
X117367884Y-116997530D01*
X116745715Y-117618614D01*
X116408584Y-118430515D01*
X116408530Y-118492604D01*
X115164567Y-119736567D01*
X114806675Y-120272189D01*
X114781784Y-120397325D01*
X114681000Y-120904000D01*
X114681000Y-123190000D01*
X114806675Y-123821811D01*
X115164567Y-124357433D01*
X117478133Y-126671000D01*
X107766896Y-126671000D01*
X109066744Y-126133914D01*
X110128187Y-125074322D01*
X110703344Y-123689189D01*
X110704653Y-122189391D01*
X110131914Y-120803256D01*
X109072322Y-119741813D01*
X107687189Y-119166656D01*
X106187391Y-119165347D01*
X104801256Y-119738086D01*
X103739813Y-120797678D01*
X103164656Y-122182811D01*
X103163347Y-123682609D01*
X103736086Y-125068744D01*
X104795678Y-126130187D01*
X106098101Y-126671000D01*
X102945000Y-126671000D01*
X102945000Y-71358609D01*
X103671347Y-71358609D01*
X104244086Y-72744744D01*
X105303678Y-73806187D01*
X106688811Y-74381344D01*
X108188609Y-74382653D01*
X109574744Y-73809914D01*
X110636187Y-72750322D01*
X111211344Y-71365189D01*
X111212653Y-69865391D01*
X110639914Y-68479256D01*
X109580322Y-67417813D01*
X108195189Y-66842656D01*
X106695391Y-66841347D01*
X105309256Y-67414086D01*
X104247813Y-68473678D01*
X103672656Y-69858811D01*
X103671347Y-71358609D01*
X102945000Y-71358609D01*
X102945000Y-66115000D01*
X134189708Y-66115000D01*
X133756496Y-66294000D01*
X133756496Y-66294000D01*
G37*
X133756496Y-66294000D02*
X126238000Y-66294000D01*
X125557589Y-66429342D01*
X124980764Y-66814764D01*
X119868408Y-71927120D01*
X118688000Y-71927120D01*
X118217366Y-72015676D01*
X117785118Y-72293820D01*
X117495138Y-72718219D01*
X117393120Y-73222000D01*
X117393120Y-74402408D01*
X111184250Y-80611278D01*
X111283165Y-80114000D01*
X111053281Y-78958296D01*
X110398627Y-77978538D01*
X109418869Y-77323884D01*
X108263165Y-77094000D01*
X108144835Y-77094000D01*
X106989131Y-77323884D01*
X106009373Y-77978538D01*
X105354719Y-78958296D01*
X105124835Y-80114000D01*
X105354719Y-81269704D01*
X106009373Y-82249462D01*
X106989131Y-82904116D01*
X108144835Y-83134000D01*
X108263165Y-83134000D01*
X108760443Y-83035085D01*
X104406764Y-87388764D01*
X104021342Y-87965589D01*
X103886000Y-88646000D01*
X103886000Y-94929809D01*
X103861118Y-94945820D01*
X103571138Y-95370219D01*
X103469120Y-95874000D01*
X103469120Y-97674000D01*
X103557676Y-98144634D01*
X103835820Y-98576882D01*
X103886000Y-98611169D01*
X103886000Y-99714854D01*
X103705375Y-99985178D01*
X103544000Y-100796467D01*
X103544000Y-100879533D01*
X103705375Y-101690822D01*
X104164934Y-102378599D01*
X104852711Y-102838158D01*
X105664000Y-102999533D01*
X106475289Y-102838158D01*
X107163066Y-102378599D01*
X107622625Y-101690822D01*
X107784000Y-100879533D01*
X107784000Y-100796467D01*
X107622625Y-99985178D01*
X107442000Y-99714854D01*
X107442000Y-98618191D01*
X107466882Y-98602180D01*
X107756862Y-98177781D01*
X107858880Y-97674000D01*
X107858880Y-96774000D01*
X108531487Y-96774000D01*
X108696668Y-97604423D01*
X108966000Y-98007507D01*
X108966000Y-99096581D01*
X108701138Y-99484219D01*
X108599120Y-99988000D01*
X108599120Y-101688000D01*
X108687676Y-102158634D01*
X108965820Y-102590882D01*
X109390219Y-102880862D01*
X109894000Y-102982880D01*
X111594000Y-102982880D01*
X112064634Y-102894324D01*
X112496882Y-102616180D01*
X112786862Y-102191781D01*
X112888880Y-101688000D01*
X112888880Y-99988000D01*
X112800324Y-99517366D01*
X112522180Y-99085118D01*
X112522000Y-99084995D01*
X112522000Y-98007507D01*
X112791332Y-97604423D01*
X112881536Y-97150936D01*
X115544472Y-94488000D01*
X120344764Y-94488000D01*
X120553820Y-94812882D01*
X120978219Y-95102862D01*
X121482000Y-95204880D01*
X121920000Y-95204880D01*
X121920000Y-117524493D01*
X121825715Y-117618614D01*
X121488584Y-118430515D01*
X121487817Y-119309628D01*
X121823530Y-120122116D01*
X122444614Y-120744285D01*
X123256515Y-121081416D01*
X124079000Y-121082134D01*
X124079000Y-121820097D01*
X123787360Y-122522445D01*
X123786641Y-123345942D01*
X124101116Y-124107029D01*
X124682908Y-124689838D01*
X125443445Y-125005640D01*
X126266942Y-125006359D01*
X127028029Y-124691884D01*
X127610838Y-124110092D01*
X127926640Y-123349555D01*
X127927359Y-122526058D01*
X127635000Y-121818496D01*
X127635000Y-119507000D01*
X127499658Y-118826589D01*
X127114236Y-118249764D01*
X126479236Y-117614764D01*
X125902411Y-117229342D01*
X125476000Y-117144524D01*
X125476000Y-93726000D01*
X125340658Y-93045589D01*
X125176880Y-92800478D01*
X125176880Y-91510000D01*
X125088324Y-91039366D01*
X124810180Y-90607118D01*
X124385781Y-90317138D01*
X123882000Y-90215120D01*
X121482000Y-90215120D01*
X121011366Y-90303676D01*
X120579118Y-90581820D01*
X120339850Y-90932000D01*
X114808000Y-90932000D01*
X114127589Y-91067342D01*
X113550764Y-91452764D01*
X110324551Y-94678977D01*
X109871064Y-94769181D01*
X109167065Y-95239578D01*
X108696668Y-95943577D01*
X108531487Y-96774000D01*
X107858880Y-96774000D01*
X107858880Y-95874000D01*
X107770324Y-95403366D01*
X107492180Y-94971118D01*
X107442000Y-94936831D01*
X107442000Y-89382472D01*
X119888000Y-76936472D01*
X123964764Y-81013236D01*
X124541589Y-81398658D01*
X125222000Y-81534000D01*
X136349134Y-81534000D01*
X135484567Y-82398567D01*
X135126675Y-82934189D01*
X135126675Y-82934190D01*
X135001000Y-83566000D01*
X135001000Y-93980000D01*
X135126675Y-94611811D01*
X135484567Y-95147433D01*
X137516567Y-97179433D01*
X138052190Y-97537325D01*
X138684000Y-97663000D01*
X156796134Y-97663000D01*
X158087494Y-98954360D01*
X157639555Y-98768360D01*
X156816058Y-98767641D01*
X156054971Y-99082116D01*
X155472162Y-99663908D01*
X155156360Y-100424445D01*
X155155641Y-101247942D01*
X155470116Y-102009029D01*
X156051908Y-102591838D01*
X156812445Y-102907640D01*
X157215125Y-102907992D01*
X161417000Y-107109867D01*
X161417000Y-114300000D01*
X161542675Y-114931811D01*
X161900567Y-115467433D01*
X162916567Y-116483433D01*
X163452189Y-116841325D01*
X164036977Y-116957647D01*
X163832353Y-117450437D01*
X163831648Y-118258020D01*
X164140046Y-119004400D01*
X164710596Y-119575947D01*
X165456437Y-119885647D01*
X166264020Y-119886352D01*
X167010400Y-119577954D01*
X167081478Y-119507000D01*
X170286087Y-119507000D01*
X170383820Y-119658882D01*
X170808219Y-119948862D01*
X171312000Y-120050880D01*
X173112000Y-120050880D01*
X173582634Y-119962324D01*
X173811026Y-119815358D01*
X173879064Y-119860819D01*
X174709487Y-120026000D01*
X174794513Y-120026000D01*
X175624936Y-119860819D01*
X176328935Y-119390422D01*
X176799332Y-118686423D01*
X176964513Y-117856000D01*
X176799332Y-117025577D01*
X176530000Y-116622493D01*
X176530000Y-108712000D01*
X176464243Y-108381416D01*
X176394658Y-108031588D01*
X176009236Y-107454764D01*
X163051466Y-94496994D01*
X163665886Y-94243121D01*
X163771191Y-94138000D01*
X170489476Y-94138000D01*
X170920225Y-95180491D01*
X171313048Y-95574000D01*
X170640571Y-95574000D01*
X170640571Y-100664000D01*
X171778656Y-100664000D01*
X171672835Y-101196000D01*
X171902719Y-102351704D01*
X172557373Y-103331462D01*
X173537131Y-103986116D01*
X174692835Y-104216000D01*
X174811165Y-104216000D01*
X175966869Y-103986116D01*
X176946627Y-103331462D01*
X177601281Y-102351704D01*
X177831165Y-101196000D01*
X177725344Y-100664000D01*
X182224858Y-100664000D01*
X182224858Y-95574000D01*
X180731069Y-95574000D01*
X181120789Y-95184960D01*
X181581534Y-94075362D01*
X181582583Y-92873909D01*
X181123775Y-91763509D01*
X180274960Y-90913211D01*
X180263800Y-90908577D01*
X180263800Y-87993238D01*
X180605571Y-87652063D01*
X180987265Y-86732842D01*
X180988133Y-85737525D01*
X180608044Y-84817639D01*
X179904863Y-84113229D01*
X178985642Y-83731535D01*
X177990325Y-83730667D01*
X177070439Y-84110756D01*
X176784118Y-84396578D01*
X176501263Y-84113229D01*
X175582042Y-83731535D01*
X174586725Y-83730667D01*
X173666839Y-84110756D01*
X172962429Y-84813937D01*
X172580735Y-85733158D01*
X172579867Y-86728475D01*
X172959956Y-87648361D01*
X173663137Y-88352771D01*
X174582358Y-88734465D01*
X175577675Y-88735333D01*
X176497561Y-88355244D01*
X176707800Y-88145372D01*
X176707800Y-91055680D01*
X176021294Y-91740989D01*
X175194960Y-90913211D01*
X174085362Y-90452466D01*
X172883909Y-90451417D01*
X172503572Y-90608569D01*
X172370000Y-90582000D01*
X163771918Y-90582000D01*
X163669171Y-90479073D01*
X162853523Y-90140387D01*
X161970352Y-90139616D01*
X161154114Y-90476879D01*
X160529073Y-91100829D01*
X160272705Y-91718233D01*
X159657236Y-91102764D01*
X159080411Y-90717342D01*
X158400000Y-90582000D01*
X151571918Y-90582000D01*
X151469171Y-90479073D01*
X150653523Y-90140387D01*
X149770352Y-90139616D01*
X148954114Y-90476879D01*
X148848809Y-90582000D01*
X142394264Y-90582000D01*
X142349975Y-90515717D01*
X141483765Y-89936934D01*
X140462000Y-89733692D01*
X139440235Y-89936934D01*
X138574025Y-90515717D01*
X138303000Y-90921335D01*
X138303000Y-84249866D01*
X140101987Y-82450880D01*
X141862000Y-82450880D01*
X142332634Y-82362324D01*
X142764882Y-82084180D01*
X143054862Y-81659781D01*
X143080333Y-81534000D01*
X148293044Y-81534000D01*
X148326879Y-81615886D01*
X148950829Y-82240927D01*
X149766477Y-82579613D01*
X150649648Y-82580384D01*
X151465886Y-82243121D01*
X152090927Y-81619171D01*
X152429613Y-80803523D01*
X152430384Y-79920352D01*
X152093121Y-79104114D01*
X151469171Y-78479073D01*
X150653523Y-78140387D01*
X150326459Y-78140101D01*
X150286411Y-78113342D01*
X149606000Y-77978000D01*
X143085754Y-77978000D01*
X143068324Y-77885366D01*
X142790180Y-77453118D01*
X142365781Y-77163138D01*
X141862000Y-77061120D01*
X139062000Y-77061120D01*
X138591366Y-77149676D01*
X138159118Y-77427820D01*
X137869138Y-77852219D01*
X137843667Y-77978000D01*
X125958472Y-77978000D01*
X122402472Y-74422000D01*
X126974472Y-69850000D01*
X133758097Y-69850000D01*
X134460445Y-70141640D01*
X135283942Y-70142359D01*
X135376778Y-70104000D01*
X137969613Y-70104000D01*
X138749040Y-70884789D01*
X139858638Y-71345534D01*
X141060091Y-71346583D01*
X142170491Y-70887775D01*
X142542001Y-70516913D01*
X142542001Y-70946000D01*
X143002286Y-70946000D01*
X143002286Y-76026000D01*
X150113715Y-76026000D01*
X150113715Y-70946000D01*
X151082000Y-70946000D01*
X151082000Y-66115000D01*
X153851505Y-66115000D01*
X153269813Y-66695678D01*
X152694656Y-68080811D01*
X152693347Y-69580609D01*
X153266086Y-70966744D01*
X154325678Y-72028187D01*
X155710811Y-72603344D01*
X157210609Y-72604653D01*
X158596744Y-72031914D01*
X159658187Y-70972322D01*
X160233344Y-69587189D01*
X160234653Y-68087391D01*
X159661914Y-66701256D01*
X159076680Y-66115000D01*
X161532286Y-66115000D01*
X161532286Y-70976997D01*
X161322319Y-71482653D01*
X161321184Y-72783639D01*
X161352967Y-72860561D01*
X161152764Y-73060764D01*
X160767342Y-73637589D01*
X160632000Y-74318000D01*
X160632000Y-78998082D01*
X160529073Y-79100829D01*
X160190387Y-79916477D01*
X160189616Y-80799648D01*
X160526879Y-81615886D01*
X161150829Y-82240927D01*
X161966477Y-82579613D01*
X162758424Y-82580304D01*
X160756728Y-84582000D01*
X149571918Y-84582000D01*
X149469171Y-84479073D01*
X148653523Y-84140387D01*
X147770352Y-84139616D01*
X146954114Y-84476879D01*
X146329073Y-85100829D01*
X145990387Y-85916477D01*
X145989616Y-86799648D01*
X146326879Y-87615886D01*
X146950829Y-88240927D01*
X147766477Y-88579613D01*
X148649648Y-88580384D01*
X149465886Y-88243121D01*
X149571191Y-88138000D01*
X161493200Y-88138000D01*
X162173611Y-88002658D01*
X162750436Y-87617236D01*
X175094760Y-75272912D01*
X175577675Y-75273333D01*
X176497561Y-74893244D01*
X176783882Y-74607422D01*
X177066737Y-74890771D01*
X177985958Y-75272465D01*
X178981275Y-75273333D01*
X179901161Y-74893244D01*
X180605571Y-74190063D01*
X180987265Y-73270842D01*
X180988133Y-72275525D01*
X180608044Y-71355639D01*
X179904863Y-70651229D01*
X178985642Y-70269535D01*
X177990325Y-70268667D01*
X177070439Y-70648756D01*
X176784118Y-70934578D01*
X176501263Y-70651229D01*
X175582042Y-70269535D01*
X174586725Y-70268667D01*
X173666839Y-70648756D01*
X172962429Y-71351937D01*
X172580735Y-72271158D01*
X172580310Y-72758418D01*
X164629695Y-80709033D01*
X164630384Y-79920352D01*
X164293121Y-79104114D01*
X164188000Y-78998809D01*
X164188000Y-75405899D01*
X165239639Y-75406816D01*
X166442028Y-74910000D01*
X167362766Y-73990866D01*
X167861681Y-72789347D01*
X167862816Y-71488361D01*
X167366000Y-70285972D01*
X167143715Y-70063299D01*
X167143715Y-66115000D01*
X182551000Y-66115000D01*
X182551000Y-121339505D01*
X181970322Y-120757813D01*
X180585189Y-120182656D01*
X179085391Y-120181347D01*
X177699256Y-120754086D01*
X176637813Y-121813678D01*
X176062656Y-123198811D01*
X176061347Y-124698609D01*
X176634086Y-126084744D01*
X177219320Y-126671000D01*
X167310286Y-126671000D01*
X167310286Y-124022000D01*
X159841715Y-124022000D01*
X159841715Y-126671000D01*
X142236866Y-126671000D01*
X142647010Y-126260857D01*
X143159155Y-126158985D01*
X143830711Y-125710265D01*
X144279431Y-125038709D01*
X144381303Y-124526563D01*
X146860867Y-122047000D01*
X150160944Y-122047000D01*
X150231462Y-122117641D01*
X150978037Y-122427646D01*
X151786416Y-122428352D01*
X151965262Y-122354454D01*
X151892354Y-122530037D01*
X151891648Y-123338416D01*
X152200350Y-124085532D01*
X152771462Y-124657641D01*
X153518037Y-124967646D01*
X154326416Y-124968352D01*
X155073532Y-124659650D01*
X155645641Y-124088538D01*
X155955646Y-123341963D01*
X155956352Y-122533584D01*
X155647650Y-121786468D01*
X155575000Y-121713691D01*
X155575000Y-112014000D01*
X155449325Y-111382190D01*
X155449325Y-111382189D01*
X155091433Y-110846567D01*
X151789433Y-107544567D01*
X151253811Y-107186675D01*
X150622000Y-107061000D01*
X150162141Y-107061000D01*
X150523029Y-106911884D01*
X150628096Y-106807000D01*
X151743952Y-106807000D01*
X151931189Y-106994564D01*
X152728467Y-107325623D01*
X153591746Y-107326376D01*
X154389601Y-106996709D01*
X155000564Y-106386811D01*
X155331623Y-105589533D01*
X155332376Y-104726254D01*
X155002709Y-103928399D01*
X154392811Y-103317436D01*
X153595533Y-102986377D01*
X152732254Y-102985624D01*
X151934399Y-103315291D01*
X151744359Y-103505000D01*
X150628751Y-103505000D01*
X150526092Y-103402162D01*
X149765555Y-103086360D01*
X148942058Y-103085641D01*
X148180971Y-103400116D01*
X147598162Y-103981908D01*
X147282360Y-104742445D01*
X147281641Y-105565942D01*
X147596116Y-106327029D01*
X148177908Y-106909838D01*
X148541947Y-107061000D01*
X137495830Y-107061000D01*
X138156265Y-106619711D01*
X138604985Y-105948155D01*
X138762554Y-105156000D01*
X138604985Y-104363845D01*
X138156265Y-103692289D01*
X137484709Y-103243569D01*
X136692554Y-103086000D01*
X136611446Y-103086000D01*
X135819291Y-103243569D01*
X135147735Y-103692289D01*
X134699015Y-104363845D01*
X134667755Y-104521000D01*
X133595591Y-104521000D01*
X133781416Y-104073485D01*
X133781692Y-103757174D01*
X135049867Y-102489000D01*
X143302032Y-102489000D01*
X143693291Y-102750431D01*
X144485446Y-102908000D01*
X144566554Y-102908000D01*
X145358709Y-102750431D01*
X146030265Y-102301711D01*
X146478985Y-101630155D01*
X146636554Y-100838000D01*
X146478985Y-100045845D01*
X146030265Y-99374289D01*
X145358709Y-98925569D01*
X144566554Y-98768000D01*
X144485446Y-98768000D01*
X143693291Y-98925569D01*
X143302032Y-99187000D01*
X134366000Y-99187000D01*
X133734190Y-99312675D01*
X133198567Y-99670566D01*
X131447044Y-101422090D01*
X131134372Y-101421817D01*
X130321884Y-101757530D01*
X129699715Y-102378614D01*
X129362584Y-103190515D01*
X129361817Y-104069628D01*
X129697530Y-104882116D01*
X129716870Y-104901489D01*
X129699715Y-104918614D01*
X129362584Y-105730515D01*
X129361817Y-106609628D01*
X129697530Y-107422116D01*
X129716870Y-107441489D01*
X129699715Y-107458614D01*
X129362584Y-108270515D01*
X129361817Y-109149628D01*
X129697530Y-109962116D01*
X129716870Y-109981489D01*
X129699715Y-109998614D01*
X129362584Y-110810515D01*
X129361817Y-111689628D01*
X129697530Y-112502116D01*
X129716870Y-112521489D01*
X129699715Y-112538614D01*
X129362584Y-113350515D01*
X129361817Y-114229628D01*
X129697530Y-115042116D01*
X129716870Y-115061489D01*
X129699715Y-115078614D01*
X129362584Y-115890515D01*
X129361817Y-116769628D01*
X129697530Y-117582116D01*
X130318614Y-118204285D01*
X131130515Y-118541416D01*
X132009628Y-118542183D01*
X132822116Y-118206470D01*
X133045976Y-117983000D01*
X136461044Y-117983000D01*
X136631576Y-118096946D01*
X137375895Y-118245000D01*
X137452105Y-118245000D01*
X138196424Y-118096946D01*
X138827428Y-117675323D01*
X139249051Y-117044319D01*
X139397105Y-116300000D01*
X139249051Y-115555681D01*
X139239295Y-115541080D01*
X139281862Y-115478781D01*
X139383880Y-114975000D01*
X139383880Y-113625000D01*
X139295324Y-113154366D01*
X139133574Y-112903000D01*
X140836693Y-112903000D01*
X141192908Y-113259838D01*
X141953445Y-113575640D01*
X142776942Y-113576359D01*
X143538029Y-113261884D01*
X143643096Y-113157000D01*
X145869094Y-113157000D01*
X146155225Y-113849491D01*
X147004040Y-114699789D01*
X148113638Y-115160534D01*
X149315091Y-115161583D01*
X150425491Y-114702775D01*
X151275789Y-113853960D01*
X151736534Y-112744362D01*
X151737043Y-112161909D01*
X152273000Y-112697866D01*
X152273000Y-118564928D01*
X151789963Y-118364354D01*
X150981584Y-118363648D01*
X150234468Y-118672350D01*
X150161691Y-118745000D01*
X146177000Y-118745000D01*
X145545190Y-118870675D01*
X145009567Y-119228566D01*
X142086991Y-122151143D01*
X141574845Y-122253015D01*
X140903289Y-122701735D01*
X140454569Y-123373291D01*
X140352697Y-123885436D01*
X139143134Y-125095000D01*
X120571867Y-125095000D01*
X117983000Y-122506134D01*
X117983000Y-121587866D01*
X118489177Y-121081689D01*
X119055628Y-121082183D01*
X119868116Y-120746470D01*
X120490285Y-120125386D01*
X120827416Y-119313485D01*
X120828183Y-118434372D01*
X120492470Y-117621884D01*
X119871386Y-116999715D01*
X119059485Y-116662584D01*
X118180372Y-116661817D01*
X117367884Y-116997530D01*
X116745715Y-117618614D01*
X116408584Y-118430515D01*
X116408530Y-118492604D01*
X115164567Y-119736567D01*
X114806675Y-120272189D01*
X114781784Y-120397325D01*
X114681000Y-120904000D01*
X114681000Y-123190000D01*
X114806675Y-123821811D01*
X115164567Y-124357433D01*
X117478133Y-126671000D01*
X107766896Y-126671000D01*
X109066744Y-126133914D01*
X110128187Y-125074322D01*
X110703344Y-123689189D01*
X110704653Y-122189391D01*
X110131914Y-120803256D01*
X109072322Y-119741813D01*
X107687189Y-119166656D01*
X106187391Y-119165347D01*
X104801256Y-119738086D01*
X103739813Y-120797678D01*
X103164656Y-122182811D01*
X103163347Y-123682609D01*
X103736086Y-125068744D01*
X104795678Y-126130187D01*
X106098101Y-126671000D01*
X102945000Y-126671000D01*
X102945000Y-71358609D01*
X103671347Y-71358609D01*
X104244086Y-72744744D01*
X105303678Y-73806187D01*
X106688811Y-74381344D01*
X108188609Y-74382653D01*
X109574744Y-73809914D01*
X110636187Y-72750322D01*
X111211344Y-71365189D01*
X111212653Y-69865391D01*
X110639914Y-68479256D01*
X109580322Y-67417813D01*
X108195189Y-66842656D01*
X106695391Y-66841347D01*
X105309256Y-67414086D01*
X104247813Y-68473678D01*
X103672656Y-69858811D01*
X103671347Y-71358609D01*
X102945000Y-71358609D01*
X102945000Y-66115000D01*
X134189708Y-66115000D01*
X133756496Y-66294000D01*
M02*
